# Made in Blockbench 5.0.5, made by TedXenon
# Ported to 1.21.1 item coordinates: X/Z origin shifted by +0.5.
mtllib infinity_shield_definite_defending.mtl

o ring
v 0.5625 0.875 0.90625
v 0.5625 0.875 0.53125
v 0.5625 0.5 0.90625
v 0.5625 0.5 0.53125
v 0.4375 0.875 0.53125
v 0.4375 0.875 0.90625
v 0.4375 0.5 0.53125
v 0.4375 0.5 0.90625
vt 0.25 0.28125
vt 0.1875 0.28125
vt 0.1875 0.09375
vt 0.25 0.09375
vt 0.1875 0.28125
vt 0 0.28125
vt 0 0.09375
vt 0.1875 0.09375
vt 0.25 0.28125
vt 0.1875 0.28125
vt 0.1875 0.09375
vt 0.25 0.09375
vt 0.1875 0.28125
vt 0 0.28125
vt 0 0.09375
vt 0.1875 0.09375
vt 0.1875 0.09375
vt 0.25 0.09375
vt 0.25 0.28125
vt 0.1875 0.28125
vt 0.1875 0.09375
vt 0.25 0.09375
vt 0.25 0.28125
vt 0.1875 0.28125
vn 0 0 -1
vn 1 0 0
vn 0 0 1
vn -1 0 0
vn 0 1 0
vn 0 -1 0
usemtl m_51127cb8-cc7a-b1ef-c2fb-ba4955e05161
f 4/4/1 7/3/1 5/2/1 2/1/1
f 3/8/2 4/7/2 2/6/2 1/5/2
f 8/12/3 3/11/3 1/10/3 6/9/3
f 7/16/4 8/15/4 6/14/4 5/13/4
f 6/20/5 1/19/5 2/18/5 5/17/5
f 7/24/6 4/23/6 3/22/6 8/21/6
o middle
v 0.5 1.0517766953 0.5
v 0.5 1.0517766953 0.4375
v 0.676776695297 0.875 0.5
v 0.676776695297 0.875 0.4375
v 0.323223304703 0.875 0.4375
v 0.323223304703 0.875 0.5
v 0.5 0.698223304703 0.4375
v 0.5 0.698223304703 0.5
vt 0.3125 1
vt 0.1875 1
vt 0.1875 0.875
vt 0.3125 0.875
vt 0.3125 1
vt 0.28125 1
vt 0.28125 0.875
vt 0.3125 0.875
vt 0.3125 1
vt 0.1875 1
vt 0.1875 0.875
vt 0.3125 0.875
vt 0.21875 1
vt 0.1875 1
vt 0.1875 0.875
vt 0.21875 0.875
vt 0.1875 0.96875
vt 0.3125 0.96875
vt 0.3125 1
vt 0.1875 1
vt 0.1875 0.875
vt 0.3125 0.875
vt 0.3125 0.90625
vt 0.1875 0.90625
vn 0 0 -1
vn 0.7071067811865475 0.7071067811865476 0
vn 0 0 1
vn -0.7071067811865475 -0.7071067811865476 0
vn -0.7071067811865476 0.7071067811865475 0
vn 0.7071067811865476 -0.7071067811865475 0
usemtl m_51127cb8-cc7a-b1ef-c2fb-ba4955e05161
f 12/28/7 15/27/7 13/26/7 10/25/7
f 11/32/8 12/31/8 10/30/8 9/29/8
f 16/36/9 11/35/9 9/34/9 14/33/9
f 15/40/10 16/39/10 14/38/10 13/37/10
f 14/44/11 9/43/11 10/42/11 13/41/11
f 15/48/12 12/47/12 11/46/12 16/45/12
o middle_side
v 0.455805826176 1.18435921677 0.5
v 0.455805826176 1.18435921677 0.4375
v 0.5 1.22855339059 0.5
v 0.5 1.22855339059 0.4375
v 0.765165042945 0.875 0.4375
v 0.765165042945 0.875 0.5
v 0.809359216769 0.919194173824 0.4375
v 0.809359216769 0.919194173824 0.5
vt 0 0.3125
vt 0.21875 0.3125
vt 0.21875 0.28125
vt 0 0.28125
vt 0.1875 0.3125
vt 0.21875 0.3125
vt 0.21875 0.28125
vt 0.1875 0.28125
vt 0 0.3125
vt 0.21875 0.3125
vt 0.21875 0.28125
vt 0 0.28125
vt 0 0.3125
vt 0.03125 0.3125
vt 0.03125 0.28125
vt 0 0.28125
vt 0.21875 0.28125
vt 0 0.28125
vt 0 0.3125
vt 0.21875 0.3125
vt 0.21875 0.28125
vt 0 0.28125
vt 0 0.3125
vt 0.21875 0.3125
vn 0 0 -1
vn -0.7071067811865475 0.7071067811865477 0
vn 0 0 1
vn 0.7071067811865475 -0.7071067811865477 0
vn -0.7071067811865477 -0.7071067811865475 0
vn 0.7071067811865477 0.7071067811865475 0
usemtl m_51127cb8-cc7a-b1ef-c2fb-ba4955e05161
f 20/52/13 23/51/13 21/50/13 18/49/13
f 19/56/14 20/55/14 18/54/14 17/53/14
f 24/60/15 19/59/15 17/58/15 22/57/15
f 23/64/16 24/63/16 22/62/16 21/61/16
f 22/68/17 17/67/17 18/66/17 21/65/17
f 23/72/18 20/71/18 19/70/18 24/69/18
o middle_side
v 0.234834957055 0.875 0.5
v 0.234834957055 0.875 0.4375
v 0.190640783231 0.919194173824 0.5
v 0.190640783231 0.919194173824 0.4375
v 0.5 1.14016504294 0.4375
v 0.5 1.14016504294 0.5
v 0.455805826176 1.18435921677 0.4375
v 0.455805826176 1.18435921677 0.5
vt 0 0.3125
vt 0.1875 0.3125
vt 0.1875 0.28125
vt 0 0.28125
vt 0.15625 0.3125
vt 0.1875 0.3125
vt 0.1875 0.28125
vt 0.15625 0.28125
vt 0 0.3125
vt 0.1875 0.3125
vt 0.1875 0.28125
vt 0 0.28125
vt 0 0.3125
vt 0.03125 0.3125
vt 0.03125 0.28125
vt 0 0.28125
vt 0.1875 0.28125
vt 0 0.28125
vt 0 0.3125
vt 0.1875 0.3125
vt 0.1875 0.28125
vt 0 0.28125
vt 0 0.3125
vt 0.1875 0.3125
vn 0 0 -1
vn -0.7071067811865475 -0.7071067811865477 0
vn 0 0 1
vn 0.7071067811865475 0.7071067811865477 0
vn 0.7071067811865477 -0.7071067811865475 0
vn -0.7071067811865477 0.7071067811865475 0
usemtl m_51127cb8-cc7a-b1ef-c2fb-ba4955e05161
f 28/76/19 31/75/19 29/74/19 26/73/19
f 27/80/20 28/79/20 26/78/20 25/77/20
f 32/84/21 27/83/21 25/82/21 30/81/21
f 31/88/22 32/87/22 30/86/22 29/85/22
f 30/92/23 25/91/23 26/90/23 29/89/23
f 31/96/24 28/95/24 27/94/24 32/93/24
o bottom
v 0.640625 0.6875 0.5
v 0.640625 0.6875 0.4375
v 0.640625 0.0625 0.5
v 0.640625 0.0625 0.4375
v 0.578125 0.6875 0.4375
v 0.578125 0.6875 0.5
v 0.578125 0.0625 0.4375
v 0.578125 0.0625 0.5
vt 0.3125 0.59375
vt 0.34375 0.59375
vt 0.34375 0.28125
vt 0.3125 0.28125
vt 0.3125 0.59375
vt 0.34375 0.59375
vt 0.34375 0.28125
vt 0.3125 0.28125
vt 0.3125 0.59375
vt 0.34375 0.59375
vt 0.34375 0.28125
vt 0.3125 0.28125
vt 0.3125 0.59375
vt 0.34375 0.59375
vt 0.34375 0.28125
vt 0.3125 0.28125
vt 0.34375 0.5625
vt 0.3125 0.5625
vt 0.3125 0.59375
vt 0.34375 0.59375
vt 0.34375 0.28125
vt 0.3125 0.28125
vt 0.3125 0.3125
vt 0.34375 0.3125
vn 0 0 -1
vn 1 0 0
vn 0 0 1
vn -1 0 0
vn 0 1 0
vn 0 -1 0
usemtl m_51127cb8-cc7a-b1ef-c2fb-ba4955e05161
f 36/100/25 39/99/25 37/98/25 34/97/25
f 35/104/26 36/103/26 34/102/26 33/101/26
f 40/108/27 35/107/27 33/106/27 38/105/27
f 39/112/28 40/111/28 38/110/28 37/109/28
f 38/116/29 33/115/29 34/114/29 37/113/29
f 39/120/30 36/119/30 35/118/30 40/117/30
o middle_side
v 0.809359216769 0.919194173824 0.5
v 0.809359216769 0.919194173824 0.4375
v 0.853553390593 0.875 0.5
v 0.853553390593 0.875 0.4375
v 0.578223687669 0.688058644724 0.4375
v 0.578223687669 0.688058644724 0.5
v 0.622417861493 0.6438644709 0.4375
v 0.622417861493 0.6438644709 0.5
vt 0 0.3125
vt 0.15625 0.3125
vt 0.15625 0.28125
vt 0 0.28125
vt 0.125 0.3125
vt 0.15625 0.3125
vt 0.15625 0.28125
vt 0.125 0.28125
vt 0 0.3125
vt 0.15625 0.3125
vt 0.15625 0.28125
vt 0 0.28125
vt 0 0.3125
vt 0.03125 0.3125
vt 0.03125 0.28125
vt 0 0.28125
vt 0 0.28125
vt 0.15625 0.28125
vt 0.15625 0.3125
vt 0 0.3125
vt 0 0.28125
vt 0.15625 0.28125
vt 0.15625 0.3125
vt 0 0.3125
vn 0 0 -1
vn 0.7071067811865475 0.7071067811865476 0
vn 0 0 1
vn -0.7071067811865475 -0.7071067811865476 0
vn -0.7071067811865476 0.7071067811865475 0
vn 0.7071067811865476 -0.7071067811865475 0
usemtl m_51127cb8-cc7a-b1ef-c2fb-ba4955e05161
f 44/124/31 47/123/31 45/122/31 42/121/31
f 43/128/32 44/127/32 42/126/32 41/125/32
f 48/132/33 43/131/33 41/130/33 46/129/33
f 47/136/34 48/135/34 46/134/34 45/133/34
f 46/140/35 41/139/35 42/138/35 45/137/35
f 47/144/36 44/143/36 43/142/36 48/141/36
o middle_side
v 0.421776312331 0.688058644724 0.5
v 0.421776312331 0.688058644724 0.4375
v 0.377582138507 0.6438644709 0.5
v 0.377582138507 0.6438644709 0.4375
v 0.190640783231 0.919194173824 0.4375
v 0.190640783231 0.919194173824 0.5
v 0.146446609407 0.875 0.4375
v 0.146446609407 0.875 0.5
vt 0.15625 0.3125
vt 0 0.3125
vt 0 0.28125
vt 0.15625 0.28125
vt 0.03125 0.3125
vt 0 0.3125
vt 0 0.28125
vt 0.03125 0.28125
vt 0.15625 0.3125
vt 0 0.3125
vt 0 0.28125
vt 0.15625 0.28125
vt 0.15625 0.3125
vt 0.125 0.3125
vt 0.125 0.28125
vt 0.15625 0.28125
vt 0.15625 0.28125
vt 0 0.28125
vt 0 0.3125
vt 0.15625 0.3125
vt 0.15625 0.28125
vt 0 0.28125
vt 0 0.3125
vt 0.15625 0.3125
vn 0 0 -1
vn 0.7071067811865475 -0.7071067811865476 0
vn 0 0 1
vn -0.7071067811865475 0.7071067811865476 0
vn 0.7071067811865476 0.7071067811865475 0
vn -0.7071067811865476 -0.7071067811865475 0
usemtl m_51127cb8-cc7a-b1ef-c2fb-ba4955e05161
f 52/148/37 55/147/37 53/146/37 50/145/37
f 51/152/38 52/151/38 50/150/38 49/149/38
f 56/156/39 51/155/39 49/154/39 54/153/39
f 55/160/40 56/159/40 54/158/40 53/157/40
f 54/164/41 49/163/41 50/162/41 53/161/41
f 55/168/42 52/167/42 51/166/42 56/165/42
o bottom
v 0.421875 0.6875 0.5
v 0.421875 0.6875 0.4375
v 0.421875 0.0625 0.5
v 0.421875 0.0625 0.4375
v 0.359375 0.6875 0.4375
v 0.359375 0.6875 0.5
v 0.359375 0.0625 0.4375
v 0.359375 0.0625 0.5
vt 0.34375 0.59375
vt 0.3125 0.59375
vt 0.3125 0.28125
vt 0.34375 0.28125
vt 0.34375 0.59375
vt 0.3125 0.59375
vt 0.3125 0.28125
vt 0.34375 0.28125
vt 0.34375 0.59375
vt 0.3125 0.59375
vt 0.3125 0.28125
vt 0.34375 0.28125
vt 0.34375 0.59375
vt 0.3125 0.59375
vt 0.3125 0.28125
vt 0.34375 0.28125
vt 0.3125 0.5625
vt 0.34375 0.5625
vt 0.34375 0.59375
vt 0.3125 0.59375
vt 0.3125 0.28125
vt 0.34375 0.28125
vt 0.34375 0.3125
vt 0.3125 0.3125
vn 0 0 -1
vn 1 0 0
vn 0 0 1
vn -1 0 0
vn 0 1 0
vn 0 -1 0
usemtl m_51127cb8-cc7a-b1ef-c2fb-ba4955e05161
f 60/172/43 63/171/43 61/170/43 58/169/43
f 59/176/44 60/175/44 58/174/44 57/173/44
f 64/180/45 59/179/45 57/178/45 62/177/45
f 63/184/46 64/183/46 62/182/46 61/181/46
f 62/188/47 57/187/47 58/186/47 61/185/47
f 63/192/48 60/191/48 59/190/48 64/189/48
o base_core
v 0.5 1.14016504294 0.530625
v 0.5 1.14016504294 0.468125
v 0.765165042945 0.875 0.530625
v 0.765165042945 0.875 0.468125
v 0.234834957055 0.875 0.468125
v 0.234834957055 0.875 0.530625
v 0.5 0.609834957055 0.468125
v 0.5 0.609834957055 0.530625
vt 0 1
vt 0.1875 1
vt 0.1875 0.8125
vt 0 0.8125
vt 0 0.8125
vt 0.03125 0.8125
vt 0.03125 0.625
vt 0 0.625
vt 0.1875 0.8125
vt 0 0.8125
vt 0 0.625
vt 0.1875 0.625
vt 0.1875 0.8125
vt 0.15625 0.8125
vt 0.15625 0.625
vt 0.1875 0.625
vt 0.1875 0.8125
vt 0 0.8125
vt 0 0.78125
vt 0.1875 0.78125
vt 0.1875 0.65625
vt 0 0.65625
vt 0 0.625
vt 0.1875 0.625
vn 0 0 -1
vn 0.7071067811865475 0.7071067811865476 0
vn 0 0 1
vn -0.7071067811865475 -0.7071067811865476 0
vn -0.7071067811865476 0.7071067811865475 0
vn 0.7071067811865476 -0.7071067811865475 0
usemtl m_51127cb8-cc7a-b1ef-c2fb-ba4955e05161
f 68/196/49 71/195/49 69/194/49 66/193/49
f 67/200/50 68/199/50 66/198/50 65/197/50
f 72/204/51 67/203/51 65/202/51 70/201/51
f 71/208/52 72/207/52 70/206/52 69/205/52
f 70/212/53 65/211/53 66/210/53 69/209/53
f 71/216/54 68/215/54 67/214/54 72/213/54
o base_middle
v 0.625 0.6875 0.53125
v 0.625 0.6875 0.46875
v 0.625 0.063125 0.53125
v 0.625 0.063125 0.46875
v 0.375 0.6875 0.46875
v 0.375 0.6875 0.53125
v 0.375 0.063125 0.46875
v 0.375 0.063125 0.53125
vt 0 0.625
vt 0.125 0.625
vt 0.125 0.3125
vt 0 0.3125
vt 0 0.625
vt 0.03125 0.625
vt 0.03125 0.3125
vt 0 0.3125
vt 0 0.625
vt 0.125 0.625
vt 0.125 0.3125
vt 0 0.3125
vt 0.09375 0.625
vt 0.125 0.625
vt 0.125 0.3125
vt 0.09375 0.3125
vt 0.125 0.59375
vt 0 0.59375
vt 0 0.625
vt 0.125 0.625
vt 0.125 0.3125
vt 0 0.3125
vt 0 0.34375
vt 0.125 0.34375
vn 0 0 -1
vn 1 0 0
vn 0 0 1
vn -1 0 0
vn 0 1 0
vn 0 -1 0
usemtl m_51127cb8-cc7a-b1ef-c2fb-ba4955e05161
f 76/220/55 79/219/55 77/218/55 74/217/55
f 75/224/56 76/223/56 74/222/56 73/221/56
f 80/228/57 75/227/57 73/226/57 78/225/57
f 79/232/58 80/231/58 78/230/58 77/229/58
f 78/236/59 73/235/59 74/234/59 77/233/59
f 79/240/60 76/239/60 75/238/60 80/237/60
o base_top
v 0.6875 1.625 0.53125
v 0.6875 1.625 0.46875
v 0.6875 1.0625 0.53125
v 0.6875 1.0625 0.46875
v 0.3125 1.625 0.46875
v 0.3125 1.625 0.53125
v 0.3125 1.0625 0.46875
v 0.3125 1.0625 0.53125
vt 0.1875 0.875
vt 0.375 0.875
vt 0.375 0.59375
vt 0.1875 0.59375
vt 0.1875 0.875
vt 0.21875 0.875
vt 0.21875 0.59375
vt 0.1875 0.59375
vt 0.1875 0.875
vt 0.375 0.875
vt 0.375 0.59375
vt 0.1875 0.59375
vt 0.34375 0.875
vt 0.375 0.875
vt 0.375 0.59375
vt 0.34375 0.59375
vt 0.375 0.84375
vt 0.1875 0.84375
vt 0.1875 0.875
vt 0.375 0.875
vt 0.375 0.59375
vt 0.1875 0.59375
vt 0.1875 0.625
vt 0.375 0.625
vn 0 0 -1
vn 1 0 0
vn 0 0 1
vn -1 0 0
vn 0 1 0
vn 0 -1 0
usemtl m_51127cb8-cc7a-b1ef-c2fb-ba4955e05161
f 84/244/61 87/243/61 85/242/61 82/241/61
f 83/248/62 84/247/62 82/246/62 81/245/62
f 88/252/63 83/251/63 81/250/63 86/249/63
f 87/256/64 88/255/64 86/254/64 85/253/64
f 86/260/65 81/259/65 82/258/65 85/257/65
f 87/264/66 84/263/66 83/262/66 88/261/66
o base_top2
v 0.6875 0.875 0.53125
v 0.6875 0.875 0.46875
v 0.6875 0.6875 0.53125
v 0.6875 0.6875 0.46875
v 0.3125 0.875 0.46875
v 0.3125 0.875 0.53125
v 0.3125 0.6875 0.46875
v 0.3125 0.6875 0.53125
vt 0.1875 0.6875
vt 0.375 0.6875
vt 0.375 0.59375
vt 0.1875 0.59375
vt 0.1875 0.6875
vt 0.21875 0.6875
vt 0.21875 0.59375
vt 0.1875 0.59375
vt 0.1875 0.6875
vt 0.375 0.6875
vt 0.375 0.59375
vt 0.1875 0.59375
vt 0.34375 0.6875
vt 0.375 0.6875
vt 0.375 0.59375
vt 0.34375 0.59375
vt 0.375 0.65625
vt 0.1875 0.65625
vt 0.1875 0.6875
vt 0.375 0.6875
vt 0.375 0.59375
vt 0.1875 0.59375
vt 0.1875 0.625
vt 0.375 0.625
vn 0 0 -1
vn 1 0 0
vn 0 0 1
vn -1 0 0
vn 0 1 0
vn 0 -1 0
usemtl m_51127cb8-cc7a-b1ef-c2fb-ba4955e05161
f 92/268/67 95/267/67 93/266/67 90/265/67
f 91/272/68 92/271/68 90/270/68 89/269/68
f 96/276/69 91/275/69 89/274/69 94/273/69
f 95/280/70 96/279/70 94/278/70 93/277/70
f 94/284/71 89/283/71 90/282/71 93/281/71
f 95/288/72 92/287/72 91/286/72 96/285/72
o cube
v 0.625 0.0625 0.5
v 0.625 0.0625 0.5
v 0.625 -0.3125 0.5
v 0.625 -0.3125 0.5
v 0.375 0.0625 0.5
v 0.375 0.0625 0.5
v 0.375 -0.3125 0.5
v 0.375 -0.3125 0.5
vt 0.34375 0.46875
vt 0.46875 0.46875
vt 0.46875 0.28125
vt 0.34375 0.28125
vt 0.34375 0.46875
vt 0.46875 0.46875
vt 0.46875 0.28125
vt 0.34375 0.28125
vn 0 0 -1
vn 0 0 1
usemtl m_51127cb8-cc7a-b1ef-c2fb-ba4955e05161
f 100/292/73 103/291/73 101/290/73 98/289/73
f 104/296/74 99/295/74 97/294/74 102/293/74
o base_top3
v 0.6875 1.0625 0.53125
v 0.6875 1.0625 0.46875
v 0.6875 0.875 0.53125
v 0.6875 0.875 0.46875
v 0.3125 1.0625 0.46875
v 0.3125 1.0625 0.53125
v 0.3125 0.875 0.46875
v 0.3125 0.875 0.53125
vt 0.1875 0.6875
vt 0.375 0.6875
vt 0.375 0.59375
vt 0.1875 0.59375
vt 0.1875 0.6875
vt 0.21875 0.6875
vt 0.21875 0.59375
vt 0.1875 0.59375
vt 0.1875 0.59375
vt 0.375 0.59375
vt 0.375 0.6875
vt 0.1875 0.6875
vt 0.34375 0.6875
vt 0.375 0.6875
vt 0.375 0.59375
vt 0.34375 0.59375
vt 0.375 0.65625
vt 0.1875 0.65625
vt 0.1875 0.6875
vt 0.375 0.6875
vt 0.375 0.59375
vt 0.1875 0.59375
vt 0.1875 0.625
vt 0.375 0.625
vn 0 0 -1
vn 1 0 0
vn 0 0 1
vn -1 0 0
vn 0 1 0
vn 0 -1 0
usemtl m_51127cb8-cc7a-b1ef-c2fb-ba4955e05161
f 108/300/75 111/299/75 109/298/75 106/297/75
f 107/304/76 108/303/76 106/302/76 105/301/76
f 112/308/77 107/307/77 105/306/77 110/305/77
f 111/312/78 112/311/78 110/310/78 109/309/78
f 110/316/79 105/315/79 106/314/79 109/313/79
f 111/320/80 108/319/80 107/318/80 112/317/80
o wing_left
v 0.0653431299647 1.1875 0.532517892084
v 0.0653431299647 1.1875 0.532517892084
v 0.0653431299647 0.125 0.532517892084
v 0.0653431299647 0.125 0.532517892084
v -0.115767962464 1.1875 0.581046463041
v -0.115767962464 1.1875 0.581046463041
v -0.115767962464 0.125 0.581046463041
v -0.115767962464 0.125 0.581046463041
vt 0.46875 1
vt 0.375 1
vt 0.375 0.46875
vt 0.46875 0.46875
vt 0.375 1
vt 0.46875 1
vt 0.46875 0.46875
vt 0.375 0.46875
vn -0.2588190451025208 0 -0.9659258262890684
vn 0.2588190451025208 0 0.9659258262890684
usemtl m_51127cb8-cc7a-b1ef-c2fb-ba4955e05161
f 116/324/81 119/323/81 117/322/81 114/321/81
f 120/328/82 115/327/82 113/326/82 118/325/82
o connection_left
v 0.3125 1.4375 0.5
v 0.3125 1.4375 0.5
v 0.3125 0.4375 0.5
v 0.3125 0.4375 0.5
v 0.125713494108 1.4375 0.516341701765
v 0.125713494108 1.4375 0.516341701765
v 0.125713494108 0.4375 0.516341701765
v 0.125713494108 0.4375 0.516341701765
vt 0.46875 1
vt 0.5625 1
vt 0.5625 0.5
vt 0.46875 0.5
vt 0.5625 1
vt 0.46875 1
vt 0.46875 0.5
vt 0.5625 0.5
vn -0.08715574274765818 0 -0.9961946980917455
vn 0.08715574274765818 0 0.9961946980917455
usemtl m_51127cb8-cc7a-b1ef-c2fb-ba4955e05161
f 124/332/83 127/331/83 125/330/83 122/329/83
f 128/336/84 123/335/84 121/334/84 126/333/84
o connection_left
v 0.3125 -0.125 0.5
v 0.3125 -0.125 0.5
v 0.3125 -0.3125 0.5
v 0.3125 -0.3125 0.5
v 0.125713494108 -0.125 0.516341701765
v 0.125713494108 -0.125 0.516341701765
v 0.125713494108 -0.3125 0.516341701765
v 0.125713494108 -0.3125 0.516341701765
vt 0.46875 0.5
vt 0.5625 0.5
vt 0.5625 0.40625
vt 0.46875 0.40625
vt 0.5625 0.5
vt 0.46875 0.5
vt 0.46875 0.40625
vt 0.5625 0.40625
vn -0.08715574274765818 0 -0.9961946980917455
vn 0.08715574274765818 0 0.9961946980917455
usemtl m_51127cb8-cc7a-b1ef-c2fb-ba4955e05161
f 132/340/85 135/339/85 133/338/85 130/337/85
f 136/344/86 131/343/86 129/342/86 134/341/86
o base_left
v 0.315223616961 0.4375 0.531131084315
v 0.309776383039 0.4375 0.468868915685
v 0.315223616961 -0.125 0.531131084315
v 0.309776383039 -0.125 0.468868915685
v 0.122989877147 0.4375 0.48521061745
v 0.128437111069 0.4375 0.547472786081
v 0.122989877147 -0.125 0.48521061745
v 0.128437111069 -0.125 0.547472786081
vt 0.125 0.59375
vt 0.21875 0.59375
vt 0.21875 0.3125
vt 0.125 0.3125
vt 0.15625 0.59375
vt 0.125 0.59375
vt 0.125 0.3125
vt 0.15625 0.3125
vt 0.21875 0.59375
vt 0.125 0.59375
vt 0.125 0.3125
vt 0.21875 0.3125
vt 0.21875 0.59375
vt 0.1875 0.59375
vt 0.1875 0.3125
vt 0.21875 0.3125
vt 0.21875 0.5625
vt 0.125 0.5625
vt 0.125 0.59375
vt 0.21875 0.59375
vt 0.21875 0.3125
vt 0.125 0.3125
vt 0.125 0.34375
vt 0.21875 0.34375
vn -0.08715574274765818 0 -0.9961946980917455
vn 0.9961946980917455 0 -0.08715574274765818
vn 0.08715574274765818 0 0.9961946980917455
vn -0.9961946980917455 0 0.08715574274765818
vn 0 1 0
vn 0 -1 0
usemtl m_51127cb8-cc7a-b1ef-c2fb-ba4955e05161
f 140/348/87 143/347/87 141/346/87 138/345/87
f 139/352/88 140/351/88 138/350/88 137/349/88
f 144/356/89 139/355/89 137/354/89 142/353/89
f 143/360/90 144/359/90 142/358/90 141/357/90
f 142/364/91 137/363/91 138/362/91 141/361/91
f 143/368/92 140/367/92 139/366/92 144/365/92
o base_top_left
v 0.0130608609811 1.25 0.578879264475
v -0.00311532933779 1.25 0.518508900331
v 0.0130608609811 0.8125 0.578879264475
v -0.00311532933779 0.8125 0.518508900331
v -0.184226421767 1.25 0.567037471288
v -0.168050231448 1.25 0.627407835431
v -0.184226421767 0.8125 0.567037471288
v -0.168050231448 0.8125 0.627407835431
vt 0.21875 0.59375
vt 0.3125 0.59375
vt 0.3125 0.375
vt 0.21875 0.375
vt 0.21875 0.59375
vt 0.25 0.59375
vt 0.25 0.375
vt 0.21875 0.375
vt 0.3125 0.59375
vt 0.21875 0.59375
vt 0.21875 0.375
vt 0.3125 0.375
vt 0.28125 0.59375
vt 0.3125 0.59375
vt 0.3125 0.375
vt 0.28125 0.375
vt 0.3125 0.5625
vt 0.21875 0.5625
vt 0.21875 0.59375
vt 0.3125 0.59375
vt 0.3125 0.375
vt 0.21875 0.375
vt 0.21875 0.40625
vt 0.3125 0.40625
vn -0.2588190451025208 0 -0.9659258262890684
vn 0.9659258262890684 0 -0.2588190451025208
vn 0.2588190451025208 0 0.9659258262890684
vn -0.9659258262890684 0 0.2588190451025208
vn 0 1 0
vn 0 -1 0
usemtl m_51127cb8-cc7a-b1ef-c2fb-ba4955e05161
f 148/372/93 151/371/93 149/370/93 146/369/93
f 147/376/94 148/375/94 146/374/94 145/373/94
f 152/380/95 147/379/95 145/378/95 150/377/95
f 151/384/96 152/383/96 150/382/96 149/381/96
f 150/388/97 145/387/97 146/386/97 149/385/97
f 151/392/98 148/391/98 147/390/98 152/389/98
o wing_right
v 1.11576796246 1.1875 0.581046463041
v 1.11576796246 1.1875 0.581046463041
v 1.11576796246 0.125 0.581046463041
v 1.11576796246 0.125 0.581046463041
v 0.934656870035 1.1875 0.532517892084
v 0.934656870035 1.1875 0.532517892084
v 0.934656870035 0.125 0.532517892084
v 0.934656870035 0.125 0.532517892084
vt 0.375 1
vt 0.46875 1
vt 0.46875 0.46875
vt 0.375 0.46875
vt 0.46875 1
vt 0.375 1
vt 0.375 0.46875
vt 0.46875 0.46875
vn 0.2588190451025208 0 -0.9659258262890684
vn -0.2588190451025208 0 0.9659258262890684
usemtl m_51127cb8-cc7a-b1ef-c2fb-ba4955e05161
f 156/396/99 159/395/99 157/394/99 154/393/99
f 160/400/100 155/399/100 153/398/100 158/397/100
o connection_right
v 0.874286505892 1.4375 0.516341701765
v 0.874286505892 1.4375 0.516341701765
v 0.874286505892 0.4375 0.516341701765
v 0.874286505892 0.4375 0.516341701765
v 0.6875 1.4375 0.5
v 0.6875 1.4375 0.5
v 0.6875 0.4375 0.5
v 0.6875 0.4375 0.5
vt 0.5625 1
vt 0.46875 1
vt 0.46875 0.5
vt 0.5625 0.5
vt 0.46875 1
vt 0.5625 1
vt 0.5625 0.5
vt 0.46875 0.5
vn 0.08715574274765818 0 -0.9961946980917455
vn -0.08715574274765818 0 0.9961946980917455
usemtl m_51127cb8-cc7a-b1ef-c2fb-ba4955e05161
f 164/404/101 167/403/101 165/402/101 162/401/101
f 168/408/102 163/407/102 161/406/102 166/405/102
o connection_right
v 0.874286505892 -0.125 0.516341701765
v 0.874286505892 -0.125 0.516341701765
v 0.874286505892 -0.3125 0.516341701765
v 0.874286505892 -0.3125 0.516341701765
v 0.6875 -0.125 0.5
v 0.6875 -0.125 0.5
v 0.6875 -0.3125 0.5
v 0.6875 -0.3125 0.5
vt 0.5625 0.5
vt 0.46875 0.5
vt 0.46875 0.40625
vt 0.5625 0.40625
vt 0.46875 0.5
vt 0.5625 0.5
vt 0.5625 0.40625
vt 0.46875 0.40625
vn 0.08715574274765818 0 -0.9961946980917455
vn -0.08715574274765818 0 0.9961946980917455
usemtl m_51127cb8-cc7a-b1ef-c2fb-ba4955e05161
f 172/412/103 175/411/103 173/410/103 170/409/103
f 176/416/104 171/415/104 169/414/104 174/413/104
o base_right
v 0.871562888931 0.4375 0.547472786081
v 0.877010122853 0.4375 0.48521061745
v 0.871562888931 -0.125 0.547472786081
v 0.877010122853 -0.125 0.48521061745
v 0.690223616961 0.4375 0.468868915685
v 0.684776383039 0.4375 0.531131084315
v 0.690223616961 -0.125 0.468868915685
v 0.684776383039 -0.125 0.531131084315
vt 0.21875 0.59375
vt 0.125 0.59375
vt 0.125 0.3125
vt 0.21875 0.3125
vt 0.1875 0.59375
vt 0.21875 0.59375
vt 0.21875 0.3125
vt 0.1875 0.3125
vt 0.125 0.59375
vt 0.21875 0.59375
vt 0.21875 0.3125
vt 0.125 0.3125
vt 0.125 0.59375
vt 0.15625 0.59375
vt 0.15625 0.3125
vt 0.125 0.3125
vt 0.125 0.5625
vt 0.21875 0.5625
vt 0.21875 0.59375
vt 0.125 0.59375
vt 0.125 0.3125
vt 0.21875 0.3125
vt 0.21875 0.34375
vt 0.125 0.34375
vn 0.08715574274765818 0 -0.9961946980917455
vn 0.9961946980917455 0 0.08715574274765818
vn -0.08715574274765818 0 0.9961946980917455
vn -0.9961946980917455 0 -0.08715574274765818
vn 0 1 0
vn 0 -1 0
usemtl m_51127cb8-cc7a-b1ef-c2fb-ba4955e05161
f 180/420/105 183/419/105 181/418/105 178/417/105
f 179/424/106 180/423/106 178/422/106 177/421/106
f 184/428/107 179/427/107 177/426/107 182/425/107
f 183/432/108 184/431/108 182/430/108 181/429/108
f 182/436/109 177/435/109 178/434/109 181/433/109
f 183/440/110 180/439/110 179/438/110 184/437/110
o base_top_right
v 1.16805023145 1.25 0.627407835431
v 1.18422642177 1.25 0.567037471288
v 1.16805023145 0.8125 0.627407835431
v 1.18422642177 0.8125 0.567037471288
v 1.00311532934 1.25 0.518508900331
v 0.986939139019 1.25 0.578879264475
v 1.00311532934 0.8125 0.518508900331
v 0.986939139019 0.8125 0.578879264475
vt 0.3125 0.59375
vt 0.21875 0.59375
vt 0.21875 0.375
vt 0.3125 0.375
vt 0.3125 0.59375
vt 0.28125 0.59375
vt 0.28125 0.375
vt 0.3125 0.375
vt 0.21875 0.59375
vt 0.3125 0.59375
vt 0.3125 0.375
vt 0.21875 0.375
vt 0.25 0.59375
vt 0.21875 0.59375
vt 0.21875 0.375
vt 0.25 0.375
vt 0.21875 0.5625
vt 0.3125 0.5625
vt 0.3125 0.59375
vt 0.21875 0.59375
vt 0.21875 0.375
vt 0.3125 0.375
vt 0.3125 0.40625
vt 0.21875 0.40625
vn 0.2588190451025208 0 -0.9659258262890684
vn 0.9659258262890684 0 0.2588190451025208
vn -0.2588190451025208 0 0.9659258262890684
vn -0.9659258262890684 0 -0.2588190451025208
vn 0 1 0
vn 0 -1 0
usemtl m_51127cb8-cc7a-b1ef-c2fb-ba4955e05161
f 188/444/111 191/443/111 189/442/111 186/441/111
f 187/448/112 188/447/112 186/446/112 185/445/112
f 192/452/113 187/451/113 185/450/113 190/449/113
f 191/456/114 192/455/114 190/454/114 189/453/114
f 190/460/115 185/459/115 186/458/115 189/457/115
f 191/464/116 188/463/116 187/462/116 192/461/116
