# Made in Blockbench 5.0.5, made by TedXenon
# Ported to 1.21.1 item coordinates: X/Z origin shifted by +0.5.
mtllib infinity_shield_float.mtl

o middle
v 0.5 1.0517766953 0.5
v 0.5 1.0517766953 0.4375
v 0.676776695297 0.875 0.5
v 0.676776695297 0.875 0.4375
v 0.323223304703 0.875 0.4375
v 0.323223304703 0.875 0.5
v 0.5 0.698223304703 0.4375
v 0.5 0.698223304703 0.5
vt 0.3125 1
vt 0.1875 1
vt 0.1875 0.875
vt 0.3125 0.875
vt 0.3125 1
vt 0.28125 1
vt 0.28125 0.875
vt 0.3125 0.875
vt 0.21875 1
vt 0.1875 1
vt 0.1875 0.875
vt 0.21875 0.875
vt 0.1875 0.96875
vt 0.3125 0.96875
vt 0.3125 1
vt 0.1875 1
vt 0.1875 0.875
vt 0.3125 0.875
vt 0.3125 0.90625
vt 0.1875 0.90625
vn 0 0 -1
vn 0.7071067811865475 0.7071067811865476 0
vn -0.7071067811865475 -0.7071067811865476 0
vn -0.7071067811865476 0.7071067811865475 0
vn 0.7071067811865476 -0.7071067811865475 0
usemtl m_51127cb8-cc7a-b1ef-c2fb-ba4955e05161
f 4/4/1 7/3/1 5/2/1 2/1/1
f 3/8/2 4/7/2 2/6/2 1/5/2
f 7/12/3 8/11/3 6/10/3 5/9/3
f 6/16/4 1/15/4 2/14/4 5/13/4
f 7/20/5 4/19/5 3/18/5 8/17/5
o middle_side
v 0.455805826176 1.18435921677 0.5
v 0.455805826176 1.18435921677 0.4375
v 0.5 1.22855339059 0.5
v 0.5 1.22855339059 0.4375
v 0.765165042945 0.875 0.4375
v 0.765165042945 0.875 0.5
v 0.809359216769 0.919194173824 0.4375
v 0.809359216769 0.919194173824 0.5
vt 0 0.3125
vt 0.21875 0.3125
vt 0.21875 0.28125
vt 0 0.28125
vt 0.1875 0.3125
vt 0.21875 0.3125
vt 0.21875 0.28125
vt 0.1875 0.28125
vt 0 0.3125
vt 0.21875 0.3125
vt 0.21875 0.28125
vt 0 0.28125
vt 0.21875 0.28125
vt 0 0.28125
vt 0 0.3125
vt 0.21875 0.3125
vt 0.21875 0.28125
vt 0 0.28125
vt 0 0.3125
vt 0.21875 0.3125
vn 0 0 -1
vn -0.7071067811865475 0.7071067811865477 0
vn 0 0 1
vn -0.7071067811865477 -0.7071067811865475 0
vn 0.7071067811865477 0.7071067811865475 0
usemtl m_51127cb8-cc7a-b1ef-c2fb-ba4955e05161
f 12/24/6 15/23/6 13/22/6 10/21/6
f 11/28/7 12/27/7 10/26/7 9/25/7
f 16/32/8 11/31/8 9/30/8 14/29/8
f 14/36/9 9/35/9 10/34/9 13/33/9
f 15/40/10 12/39/10 11/38/10 16/37/10
o middle_side
v 0.234834957055 0.875 0.5
v 0.234834957055 0.875 0.4375
v 0.190640783231 0.919194173824 0.5
v 0.190640783231 0.919194173824 0.4375
v 0.5 1.14016504294 0.4375
v 0.5 1.14016504294 0.5
v 0.455805826176 1.18435921677 0.4375
v 0.455805826176 1.18435921677 0.5
vt 0 0.3125
vt 0.1875 0.3125
vt 0.1875 0.28125
vt 0 0.28125
vt 0 0.3125
vt 0.1875 0.3125
vt 0.1875 0.28125
vt 0 0.28125
vt 0.1875 0.28125
vt 0 0.28125
vt 0 0.3125
vt 0.1875 0.3125
vt 0.1875 0.28125
vt 0 0.28125
vt 0 0.3125
vt 0.1875 0.3125
vn 0 0 -1
vn 0 0 1
vn 0.7071067811865477 -0.7071067811865475 0
vn -0.7071067811865477 0.7071067811865475 0
usemtl m_51127cb8-cc7a-b1ef-c2fb-ba4955e05161
f 20/44/11 23/43/11 21/42/11 18/41/11
f 24/48/12 19/47/12 17/46/12 22/45/12
f 22/52/13 17/51/13 18/50/13 21/49/13
f 23/56/14 20/55/14 19/54/14 24/53/14
o middle_side
v 0.809359216769 0.919194173824 0.5
v 0.809359216769 0.919194173824 0.4375
v 0.853553390593 0.875 0.5
v 0.853553390593 0.875 0.4375
v 0.455805826176 0.565640783231 0.4375
v 0.455805826176 0.565640783231 0.5
v 0.5 0.521446609407 0.4375
v 0.5 0.521446609407 0.5
vt 0 0.3125
vt 0.25 0.3125
vt 0.25 0.28125
vt 0 0.28125
vt 0.21875 0.3125
vt 0.25 0.3125
vt 0.25 0.28125
vt 0.21875 0.28125
vt 0 0.3125
vt 0.25 0.3125
vt 0.25 0.28125
vt 0 0.28125
vt 0 0.3125
vt 0.03125 0.3125
vt 0.03125 0.28125
vt 0 0.28125
vt 0 0.28125
vt 0.25 0.28125
vt 0.25 0.3125
vt 0 0.3125
vt 0 0.28125
vt 0.25 0.28125
vt 0.25 0.3125
vt 0 0.3125
vn 0 0 -1
vn 0.7071067811865475 0.7071067811865476 0
vn 0 0 1
vn -0.7071067811865475 -0.7071067811865476 0
vn -0.7071067811865476 0.7071067811865475 0
vn 0.7071067811865476 -0.7071067811865475 0
usemtl m_51127cb8-cc7a-b1ef-c2fb-ba4955e05161
f 28/60/15 31/59/15 29/58/15 26/57/15
f 27/64/16 28/63/16 26/62/16 25/61/16
f 32/68/17 27/67/17 25/66/17 30/65/17
f 31/72/18 32/71/18 30/70/18 29/69/18
f 30/76/19 25/75/19 26/74/19 29/73/19
f 31/80/20 28/79/20 27/78/20 32/77/20
o middle_side
v 0.5 0.609834957055 0.5
v 0.5 0.609834957055 0.4375
v 0.455805826176 0.565640783231 0.5
v 0.455805826176 0.565640783231 0.4375
v 0.190640783231 0.919194173824 0.4375
v 0.190640783231 0.919194173824 0.5
v 0.146446609407 0.875 0.4375
v 0.146446609407 0.875 0.5
vt 0.21875 0.3125
vt 0 0.3125
vt 0 0.28125
vt 0.21875 0.28125
vt 0.03125 0.3125
vt 0 0.3125
vt 0 0.28125
vt 0.03125 0.28125
vt 0.21875 0.3125
vt 0 0.3125
vt 0 0.28125
vt 0.21875 0.28125
vt 0.21875 0.3125
vt 0.1875 0.3125
vt 0.1875 0.28125
vt 0.21875 0.28125
vt 0.21875 0.28125
vt 0 0.28125
vt 0 0.3125
vt 0.21875 0.3125
vt 0.21875 0.28125
vt 0 0.28125
vt 0 0.3125
vt 0.21875 0.3125
vn 0 0 -1
vn 0.7071067811865475 -0.7071067811865476 0
vn 0 0 1
vn -0.7071067811865475 0.7071067811865476 0
vn 0.7071067811865476 0.7071067811865475 0
vn -0.7071067811865476 -0.7071067811865475 0
usemtl m_51127cb8-cc7a-b1ef-c2fb-ba4955e05161
f 36/84/21 39/83/21 37/82/21 34/81/21
f 35/88/22 36/87/22 34/86/22 33/85/22
f 40/92/23 35/91/23 33/90/23 38/89/23
f 39/96/24 40/95/24 38/94/24 37/93/24
f 38/100/25 33/99/25 34/98/25 37/97/25
f 39/104/26 36/103/26 35/102/26 40/101/26
o base_core
v 0.5 1.14016504294 0.530625
v 0.5 1.14016504294 0.468125
v 0.765165042945 0.875 0.530625
v 0.765165042945 0.875 0.468125
v 0.234834957055 0.875 0.468125
v 0.234834957055 0.875 0.530625
v 0.5 0.609834957055 0.468125
v 0.5 0.609834957055 0.530625
vt 0 1
vt 0.1875 1
vt 0.1875 0.8125
vt 0 0.8125
vt 0.1875 1
vt 0.15625 1
vt 0.15625 0.8125
vt 0.1875 0.8125
vt 0.1875 0.8125
vt 0 0.8125
vt 0 0.625
vt 0.1875 0.625
vt 0.03125 1
vt 0 1
vt 0 0.8125
vt 0.03125 0.8125
vt 0 0.96875
vt 0.1875 0.96875
vt 0.1875 1
vt 0 1
vt 0 0.813125
vt 0.1875 0.813125
vt 0.1875 0.844375
vt 0 0.844375
vn 0 0 -1
vn 0.7071067811865475 0.7071067811865476 0
vn 0 0 1
vn -0.7071067811865475 -0.7071067811865476 0
vn -0.7071067811865476 0.7071067811865475 0
vn 0.7071067811865476 -0.7071067811865475 0
usemtl m_51127cb8-cc7a-b1ef-c2fb-ba4955e05161
f 44/108/27 47/107/27 45/106/27 42/105/27
f 43/112/28 44/111/28 42/110/28 41/109/28
f 48/116/29 43/115/29 41/114/29 46/113/29
f 47/120/30 48/119/30 46/118/30 45/117/30
f 46/124/31 41/123/31 42/122/31 45/121/31
f 47/128/32 44/127/32 43/126/32 48/125/32
o base_middle
v 0.625 0.688125 0.53125
v 0.625 0.688125 0.46875
v 0.625 0.125625 0.53125
v 0.625 0.125625 0.46875
v 0.375 0.688125 0.46875
v 0.375 0.688125 0.53125
v 0.375 0.125625 0.46875
v 0.375 0.125625 0.53125
vt 0 0.59375
vt 0.125 0.59375
vt 0.125 0.3125
vt 0 0.3125
vt 0 0.59375
vt 0.03125 0.59375
vt 0.03125 0.3125
vt 0 0.3125
vt 0 0.59375
vt 0.125 0.59375
vt 0.125 0.3125
vt 0 0.3125
vt 0.09375 0.59375
vt 0.125 0.59375
vt 0.125 0.3125
vt 0.09375 0.3125
vt 0.125 0.3125
vt 0 0.3125
vt 0 0.34375
vt 0.125 0.34375
vn 0 0 -1
vn 1 0 0
vn 0 0 1
vn -1 0 0
vn 0 -1 0
usemtl m_51127cb8-cc7a-b1ef-c2fb-ba4955e05161
f 52/132/33 55/131/33 53/130/33 50/129/33
f 51/136/34 52/135/34 50/134/34 49/133/34
f 56/140/35 51/139/35 49/138/35 54/137/35
f 55/144/36 56/143/36 54/142/36 53/141/36
f 55/148/37 52/147/37 51/146/37 56/145/37
o base_top
v 0.6875 1.25 0.53125
v 0.6875 1.25 0.46875
v 0.6875 0.6875 0.53125
v 0.6875 0.6875 0.46875
v 0.3125 1.25 0.46875
v 0.3125 1.25 0.53125
v 0.3125 0.6875 0.46875
v 0.3125 0.6875 0.53125
vt 0.1875 0.875
vt 0.375 0.875
vt 0.375 0.59375
vt 0.1875 0.59375
vt 0.1875 0.875
vt 0.21875 0.875
vt 0.21875 0.59375
vt 0.1875 0.59375
vt 0.1875 0.875
vt 0.375 0.875
vt 0.375 0.59375
vt 0.1875 0.59375
vt 0.34375 0.875
vt 0.375 0.875
vt 0.375 0.59375
vt 0.34375 0.59375
vt 0.375 0.84375
vt 0.1875 0.84375
vt 0.1875 0.875
vt 0.375 0.875
vt 0.375 0.59375
vt 0.1875 0.59375
vt 0.1875 0.625
vt 0.375 0.625
vn 0 0 -1
vn 1 0 0
vn 0 0 1
vn -1 0 0
vn 0 1 0
vn 0 -1 0
usemtl m_51127cb8-cc7a-b1ef-c2fb-ba4955e05161
f 60/152/38 63/151/38 61/150/38 58/149/38
f 59/156/39 60/155/39 58/154/39 57/153/39
f 64/160/40 59/159/40 57/158/40 62/157/40
f 63/164/41 64/163/41 62/162/41 61/161/41
f 62/168/42 57/167/42 58/166/42 61/165/42
f 63/172/43 60/171/43 59/170/43 64/169/43
o base_top_left
v 0.318185065291 1.125 0.536459402552
v 0.312737831369 1.125 0.474197233922
v 0.318185065291 0.6875 0.536459402552
v 0.312737831369 0.6875 0.474197233922
v 0.125951325477 1.125 0.490538935687
v 0.131398559399 1.125 0.552801104318
v 0.125951325477 0.6875 0.490538935687
v 0.131398559399 0.6875 0.552801104318
vt 0.21875 0.59375
vt 0.3125 0.59375
vt 0.3125 0.375
vt 0.21875 0.375
vt 0.21875 0.59375
vt 0.25 0.59375
vt 0.25 0.375
vt 0.21875 0.375
vt 0.3125 0.59375
vt 0.21875 0.59375
vt 0.21875 0.375
vt 0.3125 0.375
vt 0.28125 0.59375
vt 0.3125 0.59375
vt 0.3125 0.375
vt 0.28125 0.375
vt 0.3125 0.5625
vt 0.21875 0.5625
vt 0.21875 0.59375
vt 0.3125 0.59375
vt 0.3125 0.375
vt 0.21875 0.375
vt 0.21875 0.40625
vt 0.3125 0.40625
vn -0.08715574274765818 0 -0.9961946980917455
vn 0.9961946980917455 0 -0.08715574274765818
vn 0.08715574274765818 0 0.9961946980917455
vn -0.9961946980917455 0 0.08715574274765818
vn 0 1 0
vn 0 -1 0
usemtl m_51127cb8-cc7a-b1ef-c2fb-ba4955e05161
f 68/176/44 71/175/44 69/174/44 66/173/44
f 67/180/45 68/179/45 66/178/45 65/177/45
f 72/184/46 67/183/46 65/182/46 70/181/46
f 71/188/47 72/187/47 70/186/47 69/185/47
f 70/192/48 65/191/48 66/190/48 69/189/48
f 71/196/49 68/195/49 67/194/49 72/193/49
o base_left
v 0.380447233922 0.6875 0.531012168631
v 0.375 0.6875 0.46875
v 0.380447233922 0.1875 0.531012168631
v 0.375 0.1875 0.46875
v 0.188213494108 0.6875 0.485091701765
v 0.19366072803 0.6875 0.547353870396
v 0.188213494108 0.1875 0.485091701765
v 0.19366072803 0.1875 0.547353870396
vt 0.125 0.5625
vt 0.21875 0.5625
vt 0.21875 0.3125
vt 0.125 0.3125
vt 0.21875 0.5625
vt 0.125 0.5625
vt 0.125 0.3125
vt 0.21875 0.3125
vt 0.21875 0.5625
vt 0.1875 0.5625
vt 0.1875 0.3125
vt 0.21875 0.3125
vt 0.21875 0.53125
vt 0.125 0.53125
vt 0.125 0.5625
vt 0.21875 0.5625
vt 0.21875 0.3125
vt 0.125 0.3125
vt 0.125 0.34375
vt 0.21875 0.34375
vn -0.08715574274765818 0 -0.9961946980917455
vn 0.08715574274765818 0 0.9961946980917455
vn -0.9961946980917455 0 0.08715574274765818
vn 0 1 0
vn 0 -1 0
usemtl m_51127cb8-cc7a-b1ef-c2fb-ba4955e05161
f 76/200/50 79/199/50 77/198/50 74/197/50
f 80/204/51 75/203/51 73/202/51 78/201/51
f 79/208/52 80/207/52 78/206/52 77/205/52
f 78/212/53 73/211/53 74/210/53 77/209/53
f 79/216/54 76/215/54 75/214/54 80/213/54
o base_right
v 0.80633927197 0.6875 0.547353870396
v 0.811786505892 0.6875 0.485091701765
v 0.80633927197 0.1875 0.547353870396
v 0.811786505892 0.1875 0.485091701765
v 0.625 0.6875 0.46875
v 0.619552766078 0.6875 0.531012168631
v 0.625 0.1875 0.46875
v 0.619552766078 0.1875 0.531012168631
vt 0.21875 0.5625
vt 0.125 0.5625
vt 0.125 0.3125
vt 0.21875 0.3125
vt 0.1875 0.5625
vt 0.21875 0.5625
vt 0.21875 0.3125
vt 0.1875 0.3125
vt 0.125 0.5625
vt 0.21875 0.5625
vt 0.21875 0.3125
vt 0.125 0.3125
vt 0.125 0.53125
vt 0.21875 0.53125
vt 0.21875 0.5625
vt 0.125 0.5625
vt 0.125 0.3125
vt 0.21875 0.3125
vt 0.21875 0.34375
vt 0.125 0.34375
vn 0.08715574274765818 0 -0.9961946980917455
vn 0.9961946980917455 0 0.08715574274765818
vn -0.08715574274765818 0 0.9961946980917455
vn 0 1 0
vn 0 -1 0
usemtl m_51127cb8-cc7a-b1ef-c2fb-ba4955e05161
f 84/220/55 87/219/55 85/218/55 82/217/55
f 83/224/56 84/223/56 82/222/56 81/221/56
f 88/228/57 83/227/57 81/226/57 86/225/57
f 86/232/58 81/231/58 82/230/58 85/229/58
f 87/236/59 84/235/59 83/234/59 88/233/59
o base_top_right
v 0.868601440601 1.125 0.552801104318
v 0.874048674523 1.125 0.490538935687
v 0.868601440601 0.6875 0.552801104318
v 0.874048674523 0.6875 0.490538935687
v 0.687262168631 1.125 0.474197233922
v 0.681814934709 1.125 0.536459402552
v 0.687262168631 0.6875 0.474197233922
v 0.681814934709 0.6875 0.536459402552
vt 0.3125 0.59375
vt 0.21875 0.59375
vt 0.21875 0.375
vt 0.3125 0.375
vt 0.3125 0.59375
vt 0.28125 0.59375
vt 0.28125 0.375
vt 0.3125 0.375
vt 0.21875 0.59375
vt 0.3125 0.59375
vt 0.3125 0.375
vt 0.21875 0.375
vt 0.25 0.59375
vt 0.21875 0.59375
vt 0.21875 0.375
vt 0.25 0.375
vt 0.21875 0.5625
vt 0.3125 0.5625
vt 0.3125 0.59375
vt 0.21875 0.59375
vt 0.21875 0.375
vt 0.3125 0.375
vt 0.3125 0.40625
vt 0.21875 0.40625
vn 0.08715574274765818 0 -0.9961946980917455
vn 0.9961946980917455 0 0.08715574274765818
vn -0.08715574274765818 0 0.9961946980917455
vn -0.9961946980917455 0 -0.08715574274765818
vn 0 1 0
vn 0 -1 0
usemtl m_51127cb8-cc7a-b1ef-c2fb-ba4955e05161
f 92/240/60 95/239/60 93/238/60 90/237/60
f 91/244/61 92/243/61 90/242/61 89/241/61
f 96/248/62 91/247/62 89/246/62 94/245/62
f 95/252/63 96/251/63 94/250/63 93/249/63
f 94/256/64 89/255/64 90/254/64 93/253/64
f 95/260/65 92/259/65 91/258/65 96/257/65
