# Made in Blockbench 5.0.5, made by TedXenon
mtllib infinity_shield.mtl

o ring
v 0.0625 0.875 0.40625
v 0.0625 0.875 0.03125
v 0.0625 0.5 0.40625
v 0.0625 0.5 0.03125
v -0.0625 0.875 0.03125
v -0.0625 0.875 0.40625
v -0.0625 0.5 0.03125
v -0.0625 0.5 0.40625
vt 0.1875 0.28125
vt 0 0.28125
vt 0 0.09375
vt 0.1875 0.09375
vt 0.25 0.28125
vt 0.1875 0.28125
vt 0.1875 0.09375
vt 0.25 0.09375
vt 0.1875 0.28125
vt 0 0.28125
vt 0 0.09375
vt 0.1875 0.09375
vt 0.1875 0.09375
vt 0.25 0.09375
vt 0.25 0.28125
vt 0.1875 0.28125
vt 0.1875 0.09375
vt 0.25 0.09375
vt 0.25 0.28125
vt 0.1875 0.28125
vn 1 0 0
vn 0 0 1
vn -1 0 0
vn 0 1 0
vn 0 -1 0
usemtl m_51127cb8-cc7a-b1ef-c2fb-ba4955e05161
f 3/4/1 4/3/1 2/2/1 1/1/1
f 8/8/2 3/7/2 1/6/2 6/5/2
f 7/12/3 8/11/3 6/10/3 5/9/3
f 6/16/4 1/15/4 2/14/4 5/13/4
f 7/20/5 4/19/5 3/18/5 8/17/5
o middle
v -1.3877787807814457e-17 1.051776695296637 0
v -1.3877787807814457e-17 1.051776695296637 -0.0625
v 0.17677669529663687 0.875 0
v 0.17677669529663687 0.875 -0.0625
v -0.17677669529663687 0.875 -0.0625
v -0.17677669529663687 0.875 0
v 1.3877787807814457e-17 0.6982233047033631 -0.0625
v 1.3877787807814457e-17 0.6982233047033631 0
vt 0.3125 1
vt 0.1875 1
vt 0.1875 0.875
vt 0.3125 0.875
vt 0.3125 1
vt 0.28125 1
vt 0.28125 0.875
vt 0.3125 0.875
vt 0.21875 1
vt 0.1875 1
vt 0.1875 0.875
vt 0.21875 0.875
vt 0.1875 0.96875
vt 0.3125 0.96875
vt 0.3125 1
vt 0.1875 1
vt 0.1875 0.875
vt 0.3125 0.875
vt 0.3125 0.90625
vt 0.1875 0.90625
vn 0 0 -1
vn 0.7071067811865475 0.7071067811865476 0
vn -0.7071067811865475 -0.7071067811865476 0
vn -0.7071067811865476 0.7071067811865475 0
vn 0.7071067811865476 -0.7071067811865475 0
usemtl m_51127cb8-cc7a-b1ef-c2fb-ba4955e05161
f 12/24/6 15/23/6 13/22/6 10/21/6
f 11/28/7 12/27/7 10/26/7 9/25/7
f 15/32/8 16/31/8 14/30/8 13/29/8
f 14/36/9 9/35/9 10/34/9 13/33/9
f 15/40/10 12/39/10 11/38/10 16/37/10
o middle_side
v -0.04419417382415919 1.1843592167691146 0
v -0.04419417382415919 1.1843592167691146 -0.0625
v 5.551115123125783e-17 1.2285533905932737 0
v 5.551115123125783e-17 1.2285533905932737 -0.0625
v 0.26516504294495535 0.875 -0.0625
v 0.26516504294495535 0.875 0
v 0.3093592167691146 0.9191941738241591 -0.0625
v 0.3093592167691146 0.9191941738241591 0
vt 0 0.3125
vt 0.21875 0.3125
vt 0.21875 0.28125
vt 0 0.28125
vt 0.1875 0.3125
vt 0.21875 0.3125
vt 0.21875 0.28125
vt 0.1875 0.28125
vt 0 0.3125
vt 0.21875 0.3125
vt 0.21875 0.28125
vt 0 0.28125
vt 0.21875 0.28125
vt 0 0.28125
vt 0 0.3125
vt 0.21875 0.3125
vt 0.21875 0.28125
vt 0 0.28125
vt 0 0.3125
vt 0.21875 0.3125
vn 0 0 -1
vn -0.7071067811865475 0.7071067811865477 0
vn 0 0 1
vn -0.7071067811865477 -0.7071067811865475 0
vn 0.7071067811865477 0.7071067811865475 0
usemtl m_51127cb8-cc7a-b1ef-c2fb-ba4955e05161
f 20/44/11 23/43/11 21/42/11 18/41/11
f 19/48/12 20/47/12 18/46/12 17/45/12
f 24/52/13 19/51/13 17/50/13 22/49/13
f 22/56/14 17/55/14 18/54/14 21/53/14
f 23/60/15 20/59/15 19/58/15 24/57/15
o middle_side
v -0.26516504294495535 0.875 0
v -0.26516504294495535 0.875 -0.0625
v -0.3093592167691146 0.9191941738241591 0
v -0.3093592167691146 0.9191941738241591 -0.0625
v -2.7755575615628914e-17 1.1401650429449552 -0.0625
v -2.7755575615628914e-17 1.1401650429449552 0
v -0.04419417382415927 1.1843592167691146 -0.0625
v -0.04419417382415927 1.1843592167691146 0
vt 0 0.3125
vt 0.1875 0.3125
vt 0.1875 0.28125
vt 0 0.28125
vt 0 0.3125
vt 0.1875 0.3125
vt 0.1875 0.28125
vt 0 0.28125
vt 0.1875 0.28125
vt 0 0.28125
vt 0 0.3125
vt 0.1875 0.3125
vt 0.1875 0.28125
vt 0 0.28125
vt 0 0.3125
vt 0.1875 0.3125
vn 0 0 -1
vn 0 0 1
vn 0.7071067811865477 -0.7071067811865475 0
vn -0.7071067811865477 0.7071067811865475 0
usemtl m_51127cb8-cc7a-b1ef-c2fb-ba4955e05161
f 28/64/16 31/63/16 29/62/16 26/61/16
f 32/68/17 27/67/17 25/66/17 30/65/17
f 30/72/18 25/71/18 26/70/18 29/69/18
f 31/76/19 28/75/19 27/74/19 32/73/19
o bottom
v 0.140625 0.6875 0
v 0.140625 0.6875 -0.0625
v 0.140625 0.0625 0
v 0.140625 0.0625 -0.0625
v 0.078125 0.6875 -0.0625
v 0.078125 0.6875 0
v 0.078125 0.0625 -0.0625
v 0.078125 0.0625 0
vt 0.3125 0.59375
vt 0.34375 0.59375
vt 0.34375 0.28125
vt 0.3125 0.28125
vt 0.3125 0.59375
vt 0.34375 0.59375
vt 0.34375 0.28125
vt 0.3125 0.28125
vt 0.3125 0.59375
vt 0.34375 0.59375
vt 0.34375 0.28125
vt 0.3125 0.28125
vt 0.3125 0.59375
vt 0.34375 0.59375
vt 0.34375 0.28125
vt 0.3125 0.28125
vt 0.34375 0.5625
vt 0.3125 0.5625
vt 0.3125 0.59375
vt 0.34375 0.59375
vt 0.34375 0.28125
vt 0.3125 0.28125
vt 0.3125 0.3125
vt 0.34375 0.3125
vn 0 0 -1
vn 1 0 0
vn 0 0 1
vn -1 0 0
vn 0 1 0
vn 0 -1 0
usemtl m_51127cb8-cc7a-b1ef-c2fb-ba4955e05161
f 36/80/20 39/79/20 37/78/20 34/77/20
f 35/84/21 36/83/21 34/82/21 33/81/21
f 40/88/22 35/87/22 33/86/22 38/85/22
f 39/92/23 40/91/23 38/90/23 37/89/23
f 38/96/24 33/95/24 34/94/24 37/93/24
f 39/100/25 36/99/25 35/98/25 40/97/25
o middle_side
v 0.30935921676911454 0.9191941738241592 0
v 0.30935921676911454 0.9191941738241592 -0.0625
v 0.35355339059327373 0.875 0
v 0.35355339059327373 0.875 -0.0625
v 0.07822368766876184 0.6880586447238065 -0.0625
v 0.07822368766876184 0.6880586447238065 0
v 0.12241786149292105 0.6438644708996473 -0.0625
v 0.12241786149292105 0.6438644708996473 0
vt 0 0.3125
vt 0.15625 0.3125
vt 0.15625 0.28125
vt 0 0.28125
vt 0.125 0.3125
vt 0.15625 0.3125
vt 0.15625 0.28125
vt 0.125 0.28125
vt 0 0.3125
vt 0.15625 0.3125
vt 0.15625 0.28125
vt 0 0.28125
vt 0 0.3125
vt 0.03125 0.3125
vt 0.03125 0.28125
vt 0 0.28125
vt 0 0.28125
vt 0.15625 0.28125
vt 0.15625 0.3125
vt 0 0.3125
vt 0 0.28125
vt 0.15625 0.28125
vt 0.15625 0.3125
vt 0 0.3125
vn 0 0 -1
vn 0.7071067811865475 0.7071067811865476 0
vn 0 0 1
vn -0.7071067811865475 -0.7071067811865476 0
vn -0.7071067811865476 0.7071067811865475 0
vn 0.7071067811865476 -0.7071067811865475 0
usemtl m_51127cb8-cc7a-b1ef-c2fb-ba4955e05161
f 44/104/26 47/103/26 45/102/26 42/101/26
f 43/108/27 44/107/27 42/106/27 41/105/27
f 48/112/28 43/111/28 41/110/28 46/109/28
f 47/116/29 48/115/29 46/114/29 45/113/29
f 46/120/30 41/119/30 42/118/30 45/117/30
f 47/124/31 44/123/31 43/122/31 48/121/31
o middle_side
v -0.07822368766876182 0.6880586447238065 0
v -0.07822368766876182 0.6880586447238065 -0.0625
v -0.12241786149292104 0.6438644708996473 0
v -0.12241786149292104 0.6438644708996473 -0.0625
v -0.30935921676911454 0.9191941738241592 -0.0625
v -0.30935921676911454 0.9191941738241592 0
v -0.35355339059327373 0.875 -0.0625
v -0.35355339059327373 0.875 0
vt 0.15625 0.3125
vt 0 0.3125
vt 0 0.28125
vt 0.15625 0.28125
vt 0.03125 0.3125
vt 0 0.3125
vt 0 0.28125
vt 0.03125 0.28125
vt 0.15625 0.3125
vt 0 0.3125
vt 0 0.28125
vt 0.15625 0.28125
vt 0.15625 0.3125
vt 0.125 0.3125
vt 0.125 0.28125
vt 0.15625 0.28125
vt 0.15625 0.28125
vt 0 0.28125
vt 0 0.3125
vt 0.15625 0.3125
vt 0.15625 0.28125
vt 0 0.28125
vt 0 0.3125
vt 0.15625 0.3125
vn 0 0 -1
vn 0.7071067811865475 -0.7071067811865476 0
vn 0 0 1
vn -0.7071067811865475 0.7071067811865476 0
vn 0.7071067811865476 0.7071067811865475 0
vn -0.7071067811865476 -0.7071067811865475 0
usemtl m_51127cb8-cc7a-b1ef-c2fb-ba4955e05161
f 52/128/32 55/127/32 53/126/32 50/125/32
f 51/132/33 52/131/33 50/130/33 49/129/33
f 56/136/34 51/135/34 49/134/34 54/133/34
f 55/140/35 56/139/35 54/138/35 53/137/35
f 54/144/36 49/143/36 50/142/36 53/141/36
f 55/148/37 52/147/37 51/146/37 56/145/37
o bottom
v -0.078125 0.6875 0
v -0.078125 0.6875 -0.0625
v -0.078125 0.0625 0
v -0.078125 0.0625 -0.0625
v -0.140625 0.6875 -0.0625
v -0.140625 0.6875 0
v -0.140625 0.0625 -0.0625
v -0.140625 0.0625 0
vt 0.34375 0.59375
vt 0.3125 0.59375
vt 0.3125 0.28125
vt 0.34375 0.28125
vt 0.34375 0.59375
vt 0.3125 0.59375
vt 0.3125 0.28125
vt 0.34375 0.28125
vt 0.34375 0.59375
vt 0.3125 0.59375
vt 0.3125 0.28125
vt 0.34375 0.28125
vt 0.34375 0.59375
vt 0.3125 0.59375
vt 0.3125 0.28125
vt 0.34375 0.28125
vt 0.3125 0.5625
vt 0.34375 0.5625
vt 0.34375 0.59375
vt 0.3125 0.59375
vt 0.3125 0.28125
vt 0.34375 0.28125
vt 0.34375 0.3125
vt 0.3125 0.3125
vn 0 0 -1
vn 1 0 0
vn 0 0 1
vn -1 0 0
vn 0 1 0
vn 0 -1 0
usemtl m_51127cb8-cc7a-b1ef-c2fb-ba4955e05161
f 60/152/38 63/151/38 61/150/38 58/149/38
f 59/156/39 60/155/39 58/154/39 57/153/39
f 64/160/40 59/159/40 57/158/40 62/157/40
f 63/164/41 64/163/41 62/162/41 61/161/41
f 62/168/42 57/167/42 58/166/42 61/165/42
f 63/172/43 60/171/43 59/170/43 64/169/43
o base_core
v -2.7755575615628914e-17 1.1401650429449552 0.030625
v -2.7755575615628914e-17 1.1401650429449552 -0.031875
v 0.26516504294495535 0.875 0.030625
v 0.26516504294495535 0.875 -0.031875
v -0.26516504294495535 0.875 -0.031875
v -0.26516504294495535 0.875 0.030625
v 2.7755575615628914e-17 0.6098349570550446 -0.031875
v 2.7755575615628914e-17 0.6098349570550446 0.030625
vt 0 1
vt 0.1875 1
vt 0.1875 0.8125
vt 0 0.8125
vt 0.1875 1
vt 0.15625 1
vt 0.15625 0.8125
vt 0.1875 0.8125
vt 0.1875 0.8125
vt 0 0.8125
vt 0 0.625
vt 0.1875 0.625
vt 0.03125 1
vt 0 1
vt 0 0.8125
vt 0.03125 0.8125
vt 0 0.96875
vt 0.1875 0.96875
vt 0.1875 1
vt 0 1
vt 0 0.813125
vt 0.1875 0.813125
vt 0.1875 0.844375
vt 0 0.844375
vn 0 0 -1
vn 0.7071067811865475 0.7071067811865476 0
vn 0 0 1
vn -0.7071067811865475 -0.7071067811865476 0
vn -0.7071067811865476 0.7071067811865475 0
vn 0.7071067811865476 -0.7071067811865475 0
usemtl m_51127cb8-cc7a-b1ef-c2fb-ba4955e05161
f 68/176/44 71/175/44 69/174/44 66/173/44
f 67/180/45 68/179/45 66/178/45 65/177/45
f 72/184/46 67/183/46 65/182/46 70/181/46
f 71/188/47 72/187/47 70/186/47 69/185/47
f 70/192/48 65/191/48 66/190/48 69/189/48
f 71/196/49 68/195/49 67/194/49 72/193/49
o base_middle
v 0.125 0.6875 0.03125
v 0.125 0.6875 -0.03125
v 0.125 0.06312499999999999 0.03125
v 0.125 0.06312499999999999 -0.03125
v -0.125 0.6875 -0.03125
v -0.125 0.6875 0.03125
v -0.125 0.06312499999999999 -0.03125
v -0.125 0.06312499999999999 0.03125
vt 0 0.625
vt 0.125 0.625
vt 0.125 0.3125
vt 0 0.3125
vt 0 0.625
vt 0.03125 0.625
vt 0.03125 0.3125
vt 0 0.3125
vt 0 0.625
vt 0.125 0.625
vt 0.125 0.3125
vt 0 0.3125
vt 0.09375 0.625
vt 0.125 0.625
vt 0.125 0.3125
vt 0.09375 0.3125
vt 0.125 0.3125
vt 0 0.3125
vt 0 0.34375
vt 0.125 0.34375
vn 0 0 -1
vn 1 0 0
vn 0 0 1
vn -1 0 0
vn 0 -1 0
usemtl m_51127cb8-cc7a-b1ef-c2fb-ba4955e05161
f 76/200/50 79/199/50 77/198/50 74/197/50
f 75/204/51 76/203/51 74/202/51 73/201/51
f 80/208/52 75/207/52 73/206/52 78/205/52
f 79/212/53 80/211/53 78/210/53 77/209/53
f 79/216/54 76/215/54 75/214/54 80/213/54
o base_top
v 0.1875 1.25 0.03125
v 0.1875 1.25 -0.03125
v 0.1875 0.6875 0.03125
v 0.1875 0.6875 -0.03125
v -0.1875 1.25 -0.03125
v -0.1875 1.25 0.03125
v -0.1875 0.6875 -0.03125
v -0.1875 0.6875 0.03125
vt 0.1875 0.875
vt 0.375 0.875
vt 0.375 0.59375
vt 0.1875 0.59375
vt 0.1875 0.875
vt 0.21875 0.875
vt 0.21875 0.59375
vt 0.1875 0.59375
vt 0.1875 0.875
vt 0.375 0.875
vt 0.375 0.59375
vt 0.1875 0.59375
vt 0.34375 0.875
vt 0.375 0.875
vt 0.375 0.59375
vt 0.34375 0.59375
vt 0.375 0.84375
vt 0.1875 0.84375
vt 0.1875 0.875
vt 0.375 0.875
vt 0.375 0.59375
vt 0.1875 0.59375
vt 0.1875 0.625
vt 0.375 0.625
vn 0 0 -1
vn 1 0 0
vn 0 0 1
vn -1 0 0
vn 0 1 0
vn 0 -1 0
usemtl m_51127cb8-cc7a-b1ef-c2fb-ba4955e05161
f 84/220/55 87/219/55 85/218/55 82/217/55
f 83/224/56 84/223/56 82/222/56 81/221/56
f 88/228/57 83/227/57 81/226/57 86/225/57
f 87/232/58 88/231/58 86/230/58 85/229/58
f 86/236/59 81/235/59 82/234/59 85/233/59
f 87/240/60 84/239/60 83/238/60 88/237/60
o base_top_left
v -0.18181493470900545 1.125 0.03645940255246273
v -0.18726216863073408 1.125 -0.025802766078271363
v -0.18181493470900545 0.6875 0.03645940255246273
v -0.18726216863073408 0.6875 -0.025802766078271363
v -0.3740486745229364 1.125 -0.009461064313085455
v -0.36860144060120775 1.125 0.052801104317648645
v -0.3740486745229364 0.6875 -0.009461064313085455
v -0.36860144060120775 0.6875 0.052801104317648645
vt 0.21875 0.59375
vt 0.3125 0.59375
vt 0.3125 0.375
vt 0.21875 0.375
vt 0.21875 0.59375
vt 0.25 0.59375
vt 0.25 0.375
vt 0.21875 0.375
vt 0.3125 0.59375
vt 0.21875 0.59375
vt 0.21875 0.375
vt 0.3125 0.375
vt 0.28125 0.59375
vt 0.3125 0.59375
vt 0.3125 0.375
vt 0.28125 0.375
vt 0.3125 0.5625
vt 0.21875 0.5625
vt 0.21875 0.59375
vt 0.3125 0.59375
vt 0.3125 0.375
vt 0.21875 0.375
vt 0.21875 0.40625
vt 0.3125 0.40625
vn -0.08715574274765818 0 -0.9961946980917455
vn 0.9961946980917455 0 -0.08715574274765818
vn 0.08715574274765818 0 0.9961946980917455
vn -0.9961946980917455 0 0.08715574274765818
vn 0 1 0
vn 0 -1 0
usemtl m_51127cb8-cc7a-b1ef-c2fb-ba4955e05161
f 92/244/61 95/243/61 93/242/61 90/241/61
f 91/248/62 92/247/62 90/246/62 89/245/62
f 96/252/63 91/251/63 89/250/63 94/249/63
f 95/256/64 96/255/64 94/254/64 93/253/64
f 94/260/65 89/259/65 90/258/65 93/257/65
f 95/264/66 92/263/66 91/262/66 96/261/66
o base_left
v -0.11955276607827137 0.6875 0.031012168630734097
v -0.125 0.6875 -0.03125
v -0.11955276607827137 0.125 0.031012168630734097
v -0.125 0.125 -0.03125
v -0.3117865058922023 0.6875 -0.014908298234814092
v -0.30633927197047367 0.6875 0.04735387039592001
v -0.3117865058922023 0.125 -0.014908298234814092
v -0.30633927197047367 0.125 0.04735387039592001
vt 0.125 0.59375
vt 0.21875 0.59375
vt 0.21875 0.3125
vt 0.125 0.3125
vt 0.21875 0.59375
vt 0.125 0.59375
vt 0.125 0.3125
vt 0.21875 0.3125
vt 0.21875 0.59375
vt 0.1875 0.59375
vt 0.1875 0.3125
vt 0.21875 0.3125
vt 0.21875 0.5625
vt 0.125 0.5625
vt 0.125 0.59375
vt 0.21875 0.59375
vt 0.21875 0.3125
vt 0.125 0.3125
vt 0.125 0.34375
vt 0.21875 0.34375
vn -0.08715574274765818 0 -0.9961946980917455
vn 0.08715574274765818 0 0.9961946980917455
vn -0.9961946980917455 0 0.08715574274765818
vn 0 1 0
vn 0 -1 0
usemtl m_51127cb8-cc7a-b1ef-c2fb-ba4955e05161
f 100/268/67 103/267/67 101/266/67 98/265/67
f 104/272/68 99/271/68 97/270/68 102/269/68
f 103/276/69 104/275/69 102/274/69 101/273/69
f 102/280/70 97/279/70 98/278/70 101/277/70
f 103/284/71 100/283/71 99/282/71 104/281/71
o base_right
v 0.30633927197047367 0.6875 0.04735387039592001
v 0.3117865058922023 0.6875 -0.014908298234814092
v 0.30633927197047367 0.125 0.04735387039592001
v 0.3117865058922023 0.125 -0.014908298234814092
v 0.125 0.6875 -0.03125
v 0.11955276607827137 0.6875 0.031012168630734097
v 0.125 0.125 -0.03125
v 0.11955276607827137 0.125 0.031012168630734097
vt 0.21875 0.59375
vt 0.125 0.59375
vt 0.125 0.3125
vt 0.21875 0.3125
vt 0.1875 0.59375
vt 0.21875 0.59375
vt 0.21875 0.3125
vt 0.1875 0.3125
vt 0.125 0.59375
vt 0.21875 0.59375
vt 0.21875 0.3125
vt 0.125 0.3125
vt 0.125 0.5625
vt 0.21875 0.5625
vt 0.21875 0.59375
vt 0.125 0.59375
vt 0.125 0.3125
vt 0.21875 0.3125
vt 0.21875 0.34375
vt 0.125 0.34375
vn 0.08715574274765818 0 -0.9961946980917455
vn 0.9961946980917455 0 0.08715574274765818
vn -0.08715574274765818 0 0.9961946980917455
vn 0 1 0
vn 0 -1 0
usemtl m_51127cb8-cc7a-b1ef-c2fb-ba4955e05161
f 108/288/72 111/287/72 109/286/72 106/285/72
f 107/292/73 108/291/73 106/290/73 105/289/73
f 112/296/74 107/295/74 105/294/74 110/293/74
f 110/300/75 105/299/75 106/298/75 109/297/75
f 111/304/76 108/303/76 107/302/76 112/301/76
o base_top_right
v 0.36860144060120775 1.125 0.052801104317648645
v 0.3740486745229364 1.125 -0.009461064313085455
v 0.36860144060120775 0.6875 0.052801104317648645
v 0.3740486745229364 0.6875 -0.009461064313085455
v 0.18726216863073408 1.125 -0.025802766078271363
v 0.18181493470900545 1.125 0.03645940255246273
v 0.18726216863073408 0.6875 -0.025802766078271363
v 0.18181493470900545 0.6875 0.03645940255246273
vt 0.3125 0.59375
vt 0.21875 0.59375
vt 0.21875 0.375
vt 0.3125 0.375
vt 0.3125 0.59375
vt 0.28125 0.59375
vt 0.28125 0.375
vt 0.3125 0.375
vt 0.21875 0.59375
vt 0.3125 0.59375
vt 0.3125 0.375
vt 0.21875 0.375
vt 0.25 0.59375
vt 0.21875 0.59375
vt 0.21875 0.375
vt 0.25 0.375
vt 0.21875 0.5625
vt 0.3125 0.5625
vt 0.3125 0.59375
vt 0.21875 0.59375
vt 0.21875 0.375
vt 0.3125 0.375
vt 0.3125 0.40625
vt 0.21875 0.40625
vn 0.08715574274765818 0 -0.9961946980917455
vn 0.9961946980917455 0 0.08715574274765818
vn -0.08715574274765818 0 0.9961946980917455
vn -0.9961946980917455 0 -0.08715574274765818
vn 0 1 0
vn 0 -1 0
usemtl m_51127cb8-cc7a-b1ef-c2fb-ba4955e05161
f 116/308/77 119/307/77 117/306/77 114/305/77
f 115/312/78 116/311/78 114/310/78 113/309/78
f 120/316/79 115/315/79 113/314/79 118/313/79
f 119/320/80 120/319/80 118/318/80 117/317/80
f 118/324/81 113/323/81 114/322/81 117/321/81
f 119/328/82 116/327/82 115/326/82 120/325/82