# Made in Blockbench 5.0.5, made by TedXenon
mtllib infinity_shield_defending.mtl

o ring
v 0.0625 0.875 0.40625
v 0.0625 0.875 0.03125
v 0.0625 0.5 0.40625
v 0.0625 0.5 0.03125
v -0.0625 0.875 0.03125
v -0.0625 0.875 0.40625
v -0.0625 0.5 0.03125
v -0.0625 0.5 0.40625
vt 0.1875 0.28125
vt 0 0.28125
vt 0 0.09375
vt 0.1875 0.09375
vt 0.25 0.28125
vt 0.1875 0.28125
vt 0.1875 0.09375
vt 0.25 0.09375
vt 0.1875 0.28125
vt 0 0.28125
vt 0 0.09375
vt 0.1875 0.09375
vt 0.1875 0.09375
vt 0.25 0.09375
vt 0.25 0.28125
vt 0.1875 0.28125
vt 0.1875 0.09375
vt 0.25 0.09375
vt 0.25 0.28125
vt 0.1875 0.28125
vn 1 0 0
vn 0 0 1
vn -1 0 0
vn 0 1 0
vn 0 -1 0
usemtl m_51127cb8-cc7a-b1ef-c2fb-ba4955e05161
f 3/4/1 4/3/1 2/2/1 1/1/1
f 8/8/2 3/7/2 1/6/2 6/5/2
f 7/12/3 8/11/3 6/10/3 5/9/3
f 6/16/4 1/15/4 2/14/4 5/13/4
f 7/20/5 4/19/5 3/18/5 8/17/5
o middle
v -1.3877787807814457e-17 1.051776695296637 0
v -1.3877787807814457e-17 1.051776695296637 -0.0625
v 0.17677669529663687 0.875 0
v 0.17677669529663687 0.875 -0.0625
v -0.17677669529663687 0.875 -0.0625
v -0.17677669529663687 0.875 0
v 1.3877787807814457e-17 0.6982233047033631 -0.0625
v 1.3877787807814457e-17 0.6982233047033631 0
vt 0.3125 1
vt 0.1875 1
vt 0.1875 0.875
vt 0.3125 0.875
vt 0.3125 1
vt 0.28125 1
vt 0.28125 0.875
vt 0.3125 0.875
vt 0.21875 1
vt 0.1875 1
vt 0.1875 0.875
vt 0.21875 0.875
vt 0.1875 0.96875
vt 0.3125 0.96875
vt 0.3125 1
vt 0.1875 1
vt 0.1875 0.875
vt 0.3125 0.875
vt 0.3125 0.90625
vt 0.1875 0.90625
vn 0 0 -1
vn 0.7071067811865475 0.7071067811865476 0
vn -0.7071067811865475 -0.7071067811865476 0
vn -0.7071067811865476 0.7071067811865475 0
vn 0.7071067811865476 -0.7071067811865475 0
usemtl m_51127cb8-cc7a-b1ef-c2fb-ba4955e05161
f 12/24/6 15/23/6 13/22/6 10/21/6
f 11/28/7 12/27/7 10/26/7 9/25/7
f 15/32/8 16/31/8 14/30/8 13/29/8
f 14/36/9 9/35/9 10/34/9 13/33/9
f 15/40/10 12/39/10 11/38/10 16/37/10
o middle_side
v -0.04419417382415919 1.1843592167691146 0
v -0.04419417382415919 1.1843592167691146 -0.0625
v 5.551115123125783e-17 1.2285533905932737 0
v 5.551115123125783e-17 1.2285533905932737 -0.0625
v 0.26516504294495535 0.875 -0.0625
v 0.26516504294495535 0.875 0
v 0.3093592167691146 0.9191941738241591 -0.0625
v 0.3093592167691146 0.9191941738241591 0
vt 0 0.3125
vt 0.21875 0.3125
vt 0.21875 0.28125
vt 0 0.28125
vt 0.1875 0.3125
vt 0.21875 0.3125
vt 0.21875 0.28125
vt 0.1875 0.28125
vt 0 0.3125
vt 0.21875 0.3125
vt 0.21875 0.28125
vt 0 0.28125
vt 0.21875 0.28125
vt 0 0.28125
vt 0 0.3125
vt 0.21875 0.3125
vt 0.21875 0.28125
vt 0 0.28125
vt 0 0.3125
vt 0.21875 0.3125
vn 0 0 -1
vn -0.7071067811865475 0.7071067811865477 0
vn 0 0 1
vn -0.7071067811865477 -0.7071067811865475 0
vn 0.7071067811865477 0.7071067811865475 0
usemtl m_51127cb8-cc7a-b1ef-c2fb-ba4955e05161
f 20/44/11 23/43/11 21/42/11 18/41/11
f 19/48/12 20/47/12 18/46/12 17/45/12
f 24/52/13 19/51/13 17/50/13 22/49/13
f 22/56/14 17/55/14 18/54/14 21/53/14
f 23/60/15 20/59/15 19/58/15 24/57/15
o middle_side
v -0.26516504294495535 0.875 0
v -0.26516504294495535 0.875 -0.0625
v -0.3093592167691146 0.9191941738241591 0
v -0.3093592167691146 0.9191941738241591 -0.0625
v -2.7755575615628914e-17 1.1401650429449552 -0.0625
v -2.7755575615628914e-17 1.1401650429449552 0
v -0.04419417382415927 1.1843592167691146 -0.0625
v -0.04419417382415927 1.1843592167691146 0
vt 0 0.3125
vt 0.1875 0.3125
vt 0.1875 0.28125
vt 0 0.28125
vt 0 0.3125
vt 0.1875 0.3125
vt 0.1875 0.28125
vt 0 0.28125
vt 0.1875 0.28125
vt 0 0.28125
vt 0 0.3125
vt 0.1875 0.3125
vt 0.1875 0.28125
vt 0 0.28125
vt 0 0.3125
vt 0.1875 0.3125
vn 0 0 -1
vn 0 0 1
vn 0.7071067811865477 -0.7071067811865475 0
vn -0.7071067811865477 0.7071067811865475 0
usemtl m_51127cb8-cc7a-b1ef-c2fb-ba4955e05161
f 28/64/16 31/63/16 29/62/16 26/61/16
f 32/68/17 27/67/17 25/66/17 30/65/17
f 30/72/18 25/71/18 26/70/18 29/69/18
f 31/76/19 28/75/19 27/74/19 32/73/19
o bottom
v 0.140625 0.6875 0
v 0.140625 0.6875 -0.0625
v 0.140625 0.0625 0
v 0.140625 0.0625 -0.0625
v 0.078125 0.6875 -0.0625
v 0.078125 0.6875 0
v 0.078125 0.0625 -0.0625
v 0.078125 0.0625 0
vt 0.3125 0.59375
vt 0.34375 0.59375
vt 0.34375 0.28125
vt 0.3125 0.28125
vt 0.3125 0.59375
vt 0.34375 0.59375
vt 0.34375 0.28125
vt 0.3125 0.28125
vt 0.3125 0.59375
vt 0.34375 0.59375
vt 0.34375 0.28125
vt 0.3125 0.28125
vt 0.3125 0.59375
vt 0.34375 0.59375
vt 0.34375 0.28125
vt 0.3125 0.28125
vt 0.34375 0.5625
vt 0.3125 0.5625
vt 0.3125 0.59375
vt 0.34375 0.59375
vt 0.34375 0.28125
vt 0.3125 0.28125
vt 0.3125 0.3125
vt 0.34375 0.3125
vn 0 0 -1
vn 1 0 0
vn 0 0 1
vn -1 0 0
vn 0 1 0
vn 0 -1 0
usemtl m_51127cb8-cc7a-b1ef-c2fb-ba4955e05161
f 36/80/20 39/79/20 37/78/20 34/77/20
f 35/84/21 36/83/21 34/82/21 33/81/21
f 40/88/22 35/87/22 33/86/22 38/85/22
f 39/92/23 40/91/23 38/90/23 37/89/23
f 38/96/24 33/95/24 34/94/24 37/93/24
f 39/100/25 36/99/25 35/98/25 40/97/25
o middle_side
v 0.30935921676911454 0.9191941738241592 0
v 0.30935921676911454 0.9191941738241592 -0.0625
v 0.35355339059327373 0.875 0
v 0.35355339059327373 0.875 -0.0625
v 0.07822368766876184 0.6880586447238065 -0.0625
v 0.07822368766876184 0.6880586447238065 0
v 0.12241786149292105 0.6438644708996473 -0.0625
v 0.12241786149292105 0.6438644708996473 0
vt 0 0.3125
vt 0.15625 0.3125
vt 0.15625 0.28125
vt 0 0.28125
vt 0.125 0.3125
vt 0.15625 0.3125
vt 0.15625 0.28125
vt 0.125 0.28125
vt 0 0.3125
vt 0.15625 0.3125
vt 0.15625 0.28125
vt 0 0.28125
vt 0 0.3125
vt 0.03125 0.3125
vt 0.03125 0.28125
vt 0 0.28125
vt 0 0.28125
vt 0.15625 0.28125
vt 0.15625 0.3125
vt 0 0.3125
vt 0 0.28125
vt 0.15625 0.28125
vt 0.15625 0.3125
vt 0 0.3125
vn 0 0 -1
vn 0.7071067811865475 0.7071067811865476 0
vn 0 0 1
vn -0.7071067811865475 -0.7071067811865476 0
vn -0.7071067811865476 0.7071067811865475 0
vn 0.7071067811865476 -0.7071067811865475 0
usemtl m_51127cb8-cc7a-b1ef-c2fb-ba4955e05161
f 44/104/26 47/103/26 45/102/26 42/101/26
f 43/108/27 44/107/27 42/106/27 41/105/27
f 48/112/28 43/111/28 41/110/28 46/109/28
f 47/116/29 48/115/29 46/114/29 45/113/29
f 46/120/30 41/119/30 42/118/30 45/117/30
f 47/124/31 44/123/31 43/122/31 48/121/31
o middle_side
v -0.07822368766876182 0.6880586447238065 0
v -0.07822368766876182 0.6880586447238065 -0.0625
v -0.12241786149292104 0.6438644708996473 0
v -0.12241786149292104 0.6438644708996473 -0.0625
v -0.30935921676911454 0.9191941738241592 -0.0625
v -0.30935921676911454 0.9191941738241592 0
v -0.35355339059327373 0.875 -0.0625
v -0.35355339059327373 0.875 0
vt 0.15625 0.3125
vt 0 0.3125
vt 0 0.28125
vt 0.15625 0.28125
vt 0.03125 0.3125
vt 0 0.3125
vt 0 0.28125
vt 0.03125 0.28125
vt 0.15625 0.3125
vt 0 0.3125
vt 0 0.28125
vt 0.15625 0.28125
vt 0.15625 0.3125
vt 0.125 0.3125
vt 0.125 0.28125
vt 0.15625 0.28125
vt 0.15625 0.28125
vt 0 0.28125
vt 0 0.3125
vt 0.15625 0.3125
vt 0.15625 0.28125
vt 0 0.28125
vt 0 0.3125
vt 0.15625 0.3125
vn 0 0 -1
vn 0.7071067811865475 -0.7071067811865476 0
vn 0 0 1
vn -0.7071067811865475 0.7071067811865476 0
vn 0.7071067811865476 0.7071067811865475 0
vn -0.7071067811865476 -0.7071067811865475 0
usemtl m_51127cb8-cc7a-b1ef-c2fb-ba4955e05161
f 52/128/32 55/127/32 53/126/32 50/125/32
f 51/132/33 52/131/33 50/130/33 49/129/33
f 56/136/34 51/135/34 49/134/34 54/133/34
f 55/140/35 56/139/35 54/138/35 53/137/35
f 54/144/36 49/143/36 50/142/36 53/141/36
f 55/148/37 52/147/37 51/146/37 56/145/37
o bottom
v -0.078125 0.6875 0
v -0.078125 0.6875 -0.0625
v -0.078125 0.0625 0
v -0.078125 0.0625 -0.0625
v -0.140625 0.6875 -0.0625
v -0.140625 0.6875 0
v -0.140625 0.0625 -0.0625
v -0.140625 0.0625 0
vt 0.34375 0.59375
vt 0.3125 0.59375
vt 0.3125 0.28125
vt 0.34375 0.28125
vt 0.34375 0.59375
vt 0.3125 0.59375
vt 0.3125 0.28125
vt 0.34375 0.28125
vt 0.34375 0.59375
vt 0.3125 0.59375
vt 0.3125 0.28125
vt 0.34375 0.28125
vt 0.34375 0.59375
vt 0.3125 0.59375
vt 0.3125 0.28125
vt 0.34375 0.28125
vt 0.3125 0.5625
vt 0.34375 0.5625
vt 0.34375 0.59375
vt 0.3125 0.59375
vt 0.3125 0.28125
vt 0.34375 0.28125
vt 0.34375 0.3125
vt 0.3125 0.3125
vn 0 0 -1
vn 1 0 0
vn 0 0 1
vn -1 0 0
vn 0 1 0
vn 0 -1 0
usemtl m_51127cb8-cc7a-b1ef-c2fb-ba4955e05161
f 60/152/38 63/151/38 61/150/38 58/149/38
f 59/156/39 60/155/39 58/154/39 57/153/39
f 64/160/40 59/159/40 57/158/40 62/157/40
f 63/164/41 64/163/41 62/162/41 61/161/41
f 62/168/42 57/167/42 58/166/42 61/165/42
f 63/172/43 60/171/43 59/170/43 64/169/43
o base_core
v -2.7755575615628914e-17 1.1401650429449552 0.030625
v -2.7755575615628914e-17 1.1401650429449552 -0.031875
v 0.26516504294495535 0.875 0.030625
v 0.26516504294495535 0.875 -0.031875
v -0.26516504294495535 0.875 -0.031875
v -0.26516504294495535 0.875 0.030625
v 2.7755575615628914e-17 0.6098349570550446 -0.031875
v 2.7755575615628914e-17 0.6098349570550446 0.030625
vt 0 1
vt 0.1875 1
vt 0.1875 0.8125
vt 0 0.8125
vt 0.03125 0.8125
vt 0 0.8125
vt 0 0.625
vt 0.03125 0.625
vt 0.1875 0.8125
vt 0 0.8125
vt 0 0.625
vt 0.1875 0.625
vt 0.1875 0.8125
vt 0.15625 0.8125
vt 0.15625 0.625
vt 0.1875 0.625
vt 0.1875 0.78125
vt 0 0.78125
vt 0 0.8125
vt 0.1875 0.8125
vt 0.1875 0.625
vt 0 0.625
vt 0 0.65625
vt 0.1875 0.65625
vn 0 0 -1
vn 0.7071067811865475 0.7071067811865476 0
vn 0 0 1
vn -0.7071067811865475 -0.7071067811865476 0
vn -0.7071067811865476 0.7071067811865475 0
vn 0.7071067811865476 -0.7071067811865475 0
usemtl m_51127cb8-cc7a-b1ef-c2fb-ba4955e05161
f 68/176/44 71/175/44 69/174/44 66/173/44
f 67/180/45 68/179/45 66/178/45 65/177/45
f 72/184/46 67/183/46 65/182/46 70/181/46
f 71/188/47 72/187/47 70/186/47 69/185/47
f 70/192/48 65/191/48 66/190/48 69/189/48
f 71/196/49 68/195/49 67/194/49 72/193/49
o base_middle
v 0.125 0.6875 0.03125
v 0.125 0.6875 -0.03125
v 0.125 0.06312499999999999 0.03125
v 0.125 0.06312499999999999 -0.03125
v -0.125 0.6875 -0.03125
v -0.125 0.6875 0.03125
v -0.125 0.06312499999999999 -0.03125
v -0.125 0.06312499999999999 0.03125
vt 0 0.625
vt 0.125 0.625
vt 0.125 0.3125
vt 0 0.3125
vt 0 0.625
vt 0.03125 0.625
vt 0.03125 0.3125
vt 0 0.3125
vt 0 0.625
vt 0.125 0.625
vt 0.125 0.3125
vt 0 0.3125
vt 0.09375 0.625
vt 0.125 0.625
vt 0.125 0.3125
vt 0.09375 0.3125
vt 0.125 0.3125
vt 0 0.3125
vt 0 0.34375
vt 0.125 0.34375
vn 0 0 -1
vn 1 0 0
vn 0 0 1
vn -1 0 0
vn 0 -1 0
usemtl m_51127cb8-cc7a-b1ef-c2fb-ba4955e05161
f 76/200/50 79/199/50 77/198/50 74/197/50
f 75/204/51 76/203/51 74/202/51 73/201/51
f 80/208/52 75/207/52 73/206/52 78/205/52
f 79/212/53 80/211/53 78/210/53 77/209/53
f 79/216/54 76/215/54 75/214/54 80/213/54
o base_top
v 0.1875 1.375 0.03125
v 0.1875 1.375 -0.03125
v 0.1875 0.8125 0.03125
v 0.1875 0.8125 -0.03125
v -0.1875 1.375 -0.03125
v -0.1875 1.375 0.03125
v -0.1875 0.8125 -0.03125
v -0.1875 0.8125 0.03125
vt 0.1875 0.875
vt 0.375 0.875
vt 0.375 0.59375
vt 0.1875 0.59375
vt 0.1875 0.875
vt 0.21875 0.875
vt 0.21875 0.59375
vt 0.1875 0.59375
vt 0.1875 0.875
vt 0.375 0.875
vt 0.375 0.59375
vt 0.1875 0.59375
vt 0.34375 0.875
vt 0.375 0.875
vt 0.375 0.59375
vt 0.34375 0.59375
vt 0.375 0.84375
vt 0.1875 0.84375
vt 0.1875 0.875
vt 0.375 0.875
vt 0.375 0.59375
vt 0.1875 0.59375
vt 0.1875 0.625
vt 0.375 0.625
vn 0 0 -1
vn 1 0 0
vn 0 0 1
vn -1 0 0
vn 0 1 0
vn 0 -1 0
usemtl m_51127cb8-cc7a-b1ef-c2fb-ba4955e05161
f 84/220/55 87/219/55 85/218/55 82/217/55
f 83/224/56 84/223/56 82/222/56 81/221/56
f 88/228/57 83/227/57 81/226/57 86/225/57
f 87/232/58 88/231/58 86/230/58 85/229/58
f 86/236/59 81/235/59 82/234/59 85/233/59
f 87/240/60 84/239/60 83/238/60 88/237/60
o base_top2
v 0.1875 0.8125 0.03125
v 0.1875 0.8125 -0.03125
v 0.1875 0.6875 0.03125
v 0.1875 0.6875 -0.03125
v -0.1875 0.8125 -0.03125
v -0.1875 0.8125 0.03125
v -0.1875 0.6875 -0.03125
v -0.1875 0.6875 0.03125
vt 0.1875 0.65625
vt 0.375 0.65625
vt 0.375 0.59375
vt 0.1875 0.59375
vt 0.1875 0.65625
vt 0.21875 0.65625
vt 0.21875 0.59375
vt 0.1875 0.59375
vt 0.1875 0.65625
vt 0.375 0.65625
vt 0.375 0.59375
vt 0.1875 0.59375
vt 0.34375 0.65625
vt 0.375 0.65625
vt 0.375 0.59375
vt 0.34375 0.59375
vt 0.375 0.625
vt 0.1875 0.625
vt 0.1875 0.65625
vt 0.375 0.65625
vt 0.375 0.59375
vt 0.1875 0.59375
vt 0.1875 0.625
vt 0.375 0.625
vn 0 0 -1
vn 1 0 0
vn 0 0 1
vn -1 0 0
vn 0 1 0
vn 0 -1 0
usemtl m_51127cb8-cc7a-b1ef-c2fb-ba4955e05161
f 92/244/61 95/243/61 93/242/61 90/241/61
f 91/248/62 92/247/62 90/246/62 89/245/62
f 96/252/63 91/251/63 89/250/63 94/249/63
f 95/256/64 96/255/64 94/254/64 93/253/64
f 94/260/65 89/259/65 90/258/65 93/257/65
f 95/264/66 92/263/66 91/262/66 96/261/66
o base_right
v 0.30633927197047367 0.5625 0.04735387039592001
v 0.3117865058922023 0.5625 -0.014908298234814092
v 0.30633927197047367 0 0.04735387039592001
v 0.3117865058922023 0 -0.014908298234814092
v 0.125 0.5625 -0.03125
v 0.11955276607827137 0.5625 0.031012168630734097
v 0.125 0 -0.03125
v 0.11955276607827137 0 0.031012168630734097
vt 0.21875 0.59375
vt 0.125 0.59375
vt 0.125 0.3125
vt 0.21875 0.3125
vt 0.1875 0.59375
vt 0.21875 0.59375
vt 0.21875 0.3125
vt 0.1875 0.3125
vt 0.125 0.59375
vt 0.21875 0.59375
vt 0.21875 0.3125
vt 0.125 0.3125
vt 0.1875 0.59375
vt 0.21875 0.59375
vt 0.21875 0.3125
vt 0.1875 0.3125
vt 0.125 0.5625
vt 0.21875 0.5625
vt 0.21875 0.59375
vt 0.125 0.59375
vt 0.125 0.3125
vt 0.21875 0.3125
vt 0.21875 0.34375
vt 0.125 0.34375
vn 0.08715574274765818 0 -0.9961946980917455
vn 0.9961946980917455 0 0.08715574274765818
vn -0.08715574274765818 0 0.9961946980917455
vn -0.9961946980917455 0 -0.08715574274765818
vn 0 1 0
vn 0 -1 0
usemtl m_51127cb8-cc7a-b1ef-c2fb-ba4955e05161
f 100/268/67 103/267/67 101/266/67 98/265/67
f 99/272/68 100/271/68 98/270/68 97/269/68
f 104/276/69 99/275/69 97/274/69 102/273/69
f 103/280/70 104/279/70 102/278/70 101/277/70
f 102/284/71 97/283/71 98/282/71 101/281/71
f 103/288/72 100/287/72 99/286/72 104/285/72
o base_top_right
v 0.493125777862676 1.25 0.06369557216110591
v 0.4985730117844046 1.25 0.0014334035303718157
v 0.493125777862676 0.8125 0.06369557216110591
v 0.4985730117844046 0.8125 0.0014334035303718157
v 0.3117865058922023 1.25 -0.014908298234814092
v 0.30633927197047367 1.25 0.04735387039592001
v 0.3117865058922023 0.8125 -0.014908298234814092
v 0.30633927197047367 0.8125 0.04735387039592001
vt 0.3125 0.59375
vt 0.21875 0.59375
vt 0.21875 0.375
vt 0.3125 0.375
vt 0.3125 0.59375
vt 0.28125 0.59375
vt 0.28125 0.375
vt 0.3125 0.375
vt 0.21875 0.59375
vt 0.3125 0.59375
vt 0.3125 0.375
vt 0.21875 0.375
vt 0.25 0.59375
vt 0.21875 0.59375
vt 0.21875 0.375
vt 0.25 0.375
vt 0.21875 0.5625
vt 0.3125 0.5625
vt 0.3125 0.59375
vt 0.21875 0.59375
vt 0.21875 0.375
vt 0.3125 0.375
vt 0.3125 0.40625
vt 0.21875 0.40625
vn 0.08715574274765818 0 -0.9961946980917455
vn 0.9961946980917455 0 0.08715574274765818
vn -0.08715574274765818 0 0.9961946980917455
vn -0.9961946980917455 0 -0.08715574274765818
vn 0 1 0
vn 0 -1 0
usemtl m_51127cb8-cc7a-b1ef-c2fb-ba4955e05161
f 108/292/73 111/291/73 109/290/73 106/289/73
f 107/296/74 108/295/74 106/294/74 105/293/74
f 112/300/75 107/299/75 105/298/75 110/297/75
f 111/304/76 112/303/76 110/302/76 109/301/76
f 110/308/77 105/307/77 106/306/77 109/305/77
f 111/312/78 108/311/78 107/310/78 112/309/78
o connector_right
v 0.309062888931338 1.1875 0.016222786080552956
v 0.309062888931338 1.1875 0.016222786080552956
v 0.309062888931338 0.5625 0.016222786080552956
v 0.309062888931338 0.5625 0.016222786080552956
v 0.12227638303913568 1.1875 -0.00011891568463295171
v 0.12227638303913568 1.1875 -0.00011891568463295171
v 0.12227638303913568 0.5625 -0.00011891568463295171
v 0.12227638303913568 0.5625 -0.00011891568463295171
vt 0.5625 0.8125
vt 0.46875 0.8125
vt 0.46875 0.5
vt 0.5625 0.5
vt 0.46875 0.8125
vt 0.5625 0.8125
vt 0.5625 0.5
vt 0.46875 0.5
vn 0.08715574274765818 0 -0.9961946980917455
vn -0.08715574274765818 0 0.9961946980917455
usemtl m_51127cb8-cc7a-b1ef-c2fb-ba4955e05161
f 116/316/79 119/315/79 117/314/79 114/313/79
f 120/320/80 115/319/80 113/318/80 118/317/80
o wing_right
v 0.4958493948235403 0.8125 0.03256448784573887
v 0.4958493948235403 0.8125 0.03256448784573887
v 0.4958493948235403 0.1875 0.03256448784573887
v 0.4958493948235403 0.1875 0.03256448784573887
v 0.37132505756207207 0.8125 0.02167002000228159
v 0.37132505756207207 0.8125 0.02167002000228159
v 0.37132505756207207 0.1875 0.02167002000228159
v 0.37132505756207207 0.1875 0.02167002000228159
vt 0.40625 0.78125
vt 0.46875 0.78125
vt 0.46875 0.46875
vt 0.40625 0.46875
vt 0.46875 0.78125
vt 0.40625 0.78125
vt 0.40625 0.46875
vt 0.46875 0.46875
vn 0.08715574274765818 0 -0.9961946980917455
vn -0.08715574274765818 0 0.9961946980917455
usemtl m_51127cb8-cc7a-b1ef-c2fb-ba4955e05161
f 124/324/81 127/323/81 125/322/81 122/321/81
f 128/328/82 123/327/82 121/326/82 126/325/82
o base_top_left
v -0.30633927197047367 1.25 0.04735387039592001
v -0.3117865058922023 1.25 -0.014908298234814092
v -0.30633927197047367 0.8125 0.04735387039592001
v -0.3117865058922023 0.8125 -0.014908298234814092
v -0.4985730117844046 1.25 0.0014334035303718157
v -0.493125777862676 1.25 0.06369557216110591
v -0.4985730117844046 0.8125 0.0014334035303718157
v -0.493125777862676 0.8125 0.06369557216110591
vt 0.21875 0.59375
vt 0.3125 0.59375
vt 0.3125 0.375
vt 0.21875 0.375
vt 0.21875 0.59375
vt 0.25 0.59375
vt 0.25 0.375
vt 0.21875 0.375
vt 0.3125 0.59375
vt 0.21875 0.59375
vt 0.21875 0.375
vt 0.3125 0.375
vt 0.28125 0.59375
vt 0.3125 0.59375
vt 0.3125 0.375
vt 0.28125 0.375
vt 0.3125 0.5625
vt 0.21875 0.5625
vt 0.21875 0.59375
vt 0.3125 0.59375
vt 0.3125 0.375
vt 0.21875 0.375
vt 0.21875 0.40625
vt 0.3125 0.40625
vn -0.08715574274765818 0 -0.9961946980917455
vn 0.9961946980917455 0 -0.08715574274765818
vn 0.08715574274765818 0 0.9961946980917455
vn -0.9961946980917455 0 0.08715574274765818
vn 0 1 0
vn 0 -1 0
usemtl m_51127cb8-cc7a-b1ef-c2fb-ba4955e05161
f 132/332/83 135/331/83 133/330/83 130/329/83
f 131/336/84 132/335/84 130/334/84 129/333/84
f 136/340/85 131/339/85 129/338/85 134/337/85
f 135/344/86 136/343/86 134/342/86 133/341/86
f 134/348/87 129/347/87 130/346/87 133/345/87
f 135/352/88 132/351/88 131/350/88 136/349/88
o wing_left
v -0.37132505756207207 0.8125 0.02167002000228159
v -0.37132505756207207 0.8125 0.02167002000228159
v -0.37132505756207207 0.1875 0.02167002000228159
v -0.37132505756207207 0.1875 0.02167002000228159
v -0.4958493948235403 0.8125 0.03256448784573887
v -0.4958493948235403 0.8125 0.03256448784573887
v -0.4958493948235403 0.1875 0.03256448784573887
v -0.4958493948235403 0.1875 0.03256448784573887
vt 0.46875 0.78125
vt 0.40625 0.78125
vt 0.40625 0.46875
vt 0.46875 0.46875
vt 0.40625 0.78125
vt 0.46875 0.78125
vt 0.46875 0.46875
vt 0.40625 0.46875
vn -0.08715574274765818 0 -0.9961946980917455
vn 0.08715574274765818 0 0.9961946980917455
usemtl m_51127cb8-cc7a-b1ef-c2fb-ba4955e05161
f 140/356/89 143/355/89 141/354/89 138/353/89
f 144/360/90 139/359/90 137/358/90 142/357/90
o base_left
v -0.11955276607827137 0.5625 0.031012168630734097
v -0.125 0.5625 -0.03125
v -0.11955276607827137 0 0.031012168630734097
v -0.125 0 -0.03125
v -0.3117865058922023 0.5625 -0.014908298234814092
v -0.30633927197047367 0.5625 0.04735387039592001
v -0.3117865058922023 0 -0.014908298234814092
v -0.30633927197047367 0 0.04735387039592001
vt 0.125 0.59375
vt 0.21875 0.59375
vt 0.21875 0.3125
vt 0.125 0.3125
vt 0.21875 0.59375
vt 0.1875 0.59375
vt 0.1875 0.3125
vt 0.21875 0.3125
vt 0.21875 0.59375
vt 0.125 0.59375
vt 0.125 0.3125
vt 0.21875 0.3125
vt 0.21875 0.59375
vt 0.1875 0.59375
vt 0.1875 0.3125
vt 0.21875 0.3125
vt 0.21875 0.5625
vt 0.125 0.5625
vt 0.125 0.59375
vt 0.21875 0.59375
vt 0.21875 0.3125
vt 0.125 0.3125
vt 0.125 0.34375
vt 0.21875 0.34375
vn -0.08715574274765818 0 -0.9961946980917455
vn 0.9961946980917455 0 -0.08715574274765818
vn 0.08715574274765818 0 0.9961946980917455
vn -0.9961946980917455 0 0.08715574274765818
vn 0 1 0
vn 0 -1 0
usemtl m_51127cb8-cc7a-b1ef-c2fb-ba4955e05161
f 148/364/91 151/363/91 149/362/91 146/361/91
f 147/368/92 148/367/92 146/366/92 145/365/92
f 152/372/93 147/371/93 145/370/93 150/369/93
f 151/376/94 152/375/94 150/374/94 149/373/94
f 150/380/95 145/379/95 146/378/95 149/377/95
f 151/384/96 148/383/96 147/382/96 152/381/96
o connector_left
v -0.12227638303913568 1.1875 -0.00011891568463295171
v -0.12227638303913568 1.1875 -0.00011891568463295171
v -0.12227638303913568 0.5625 -0.00011891568463295171
v -0.12227638303913568 0.5625 -0.00011891568463295171
v -0.309062888931338 1.1875 0.016222786080552956
v -0.309062888931338 1.1875 0.016222786080552956
v -0.309062888931338 0.5625 0.016222786080552956
v -0.309062888931338 0.5625 0.016222786080552956
vt 0.46875 0.8125
vt 0.5625 0.8125
vt 0.5625 0.5
vt 0.46875 0.5
vt 0.5625 0.8125
vt 0.46875 0.8125
vt 0.46875 0.5
vt 0.5625 0.5
vn -0.08715574274765818 0 -0.9961946980917455
vn 0.08715574274765818 0 0.9961946980917455
usemtl m_51127cb8-cc7a-b1ef-c2fb-ba4955e05161
f 156/388/97 159/387/97 157/386/97 154/385/97
f 160/392/98 155/391/98 153/390/98 158/389/98