# Made in Blockbench 5.0.5, made by TedXenon
mtllib infinity_trident.mtl

o base
v -6.938893903907228e-18 0.15088834764831843 0.0625
v -6.938893903907228e-18 0.15088834764831843 -0.0625
v 0.08838834764831843 0.0625 0.0625
v 0.08838834764831843 0.0625 -0.0625
v -0.08838834764831843 0.06249999999999999 -0.0625
v -0.08838834764831843 0.06249999999999999 0.0625
v 6.938893903907228e-18 -0.025888347648318433 -0.0625
v 6.938893903907228e-18 -0.025888347648318433 0.0625
vt 0.03125 1
vt 0.09375 1
vt 0.09375 0.9375
vt 0.03125 0.9375
vt 0.15625 1
vt 0.21875 1
vt 0.21875 0.9375
vt 0.15625 0.9375
vt 0.09375 1
vt 0.03125 1
vt 0.03125 0.9375
vt 0.09375 0.9375
vt 0.09375 1
vt 0.15625 1
vt 0.15625 0.9375
vt 0.09375 0.9375
vt 0.15625 0.9375
vt 0.15625 1
vt 0.21875 1
vt 0.21875 0.9375
vt 0.09375 0.9375
vt 0.09375 1
vt 0.15625 1
vt 0.15625 0.9375
vn 0 0 -1
vn 0.7071067811865475 0.7071067811865476 0
vn 0 0 1
vn -0.7071067811865475 -0.7071067811865476 0
vn -0.7071067811865476 0.7071067811865475 0
vn 0.7071067811865476 -0.7071067811865475 0
usemtl m_190859a1-43fc-f062-3860-dc3a284f3c8d
f 4/4/1 7/3/1 5/2/1 2/1/1
f 3/8/2 4/7/2 2/6/2 1/5/2
f 8/12/3 3/11/3 1/10/3 6/9/3
f 7/16/4 8/15/4 6/14/4 5/13/4
f 6/20/5 1/19/5 2/18/5 5/17/5
f 7/24/6 4/23/6 3/22/6 8/21/6
o rod
v 0.03125 1.3125 0.03125
v 0.03125 1.3125 -0.03125
v 0.03125 0.125 0.03125
v 0.03125 0.125 -0.03125
v -0.03125 1.3125 -0.03125
v -0.03125 1.3125 0.03125
v -0.03125 0.125 -0.03125
v -0.03125 0.125 0.03125
vt 0 1
vt 0.03125 1
vt 0.03125 0.40625
vt 0 0.40625
vt 0 1
vt 0.03125 1
vt 0.03125 0.40625
vt 0 0.40625
vt 0 1
vt 0.03125 1
vt 0.03125 0.40625
vt 0 0.40625
vt 0 1
vt 0.03125 1
vt 0.03125 0.40625
vt 0 0.40625
vt 0 0.4375
vt 0.03125 0.4375
vt 0.03125 0.40625
vt 0 0.40625
vn 0 0 -1
vn 1 0 0
vn 0 0 1
vn -1 0 0
vn 0 -1 0
usemtl m_190859a1-43fc-f062-3860-dc3a284f3c8d
f 12/28/7 15/27/7 13/26/7 10/25/7
f 11/32/8 12/31/8 10/30/8 9/29/8
f 16/36/9 11/35/9 9/34/9 14/33/9
f 15/40/10 16/39/10 14/38/10 13/37/10
f 15/44/11 12/43/11 11/42/11 16/41/11
o top_base
v 0.0625 1.5 0.063125
v 0.0625 1.5 -0.063125
v 0.0625 1.3125 0.063125
v 0.0625 1.3125 -0.063125
v -0.0625 1.5 -0.063125
v -0.0625 1.5 0.063125
v -0.0625 1.3125 -0.063125
v -0.0625 1.3125 0.063125
vt 0.03125 0.875
vt 0.09375 0.875
vt 0.09375 0.78125
vt 0.03125 0.78125
vt 0.03125 0.875
vt 0.094375 0.875
vt 0.094375 0.78125
vt 0.03125 0.78125
vt 0.03125 0.875
vt 0.09375 0.875
vt 0.09375 0.78125
vt 0.03125 0.78125
vt 0.03125 0.875
vt 0.094375 0.875
vt 0.094375 0.78125
vt 0.03125 0.78125
vt 0.09375 0.875
vt 0.15625 0.875
vt 0.15625 0.811875
vt 0.09375 0.811875
vt 0.09375 0.875
vt 0.15625 0.875
vt 0.15625 0.811875
vt 0.09375 0.811875
vn 0 0 -1
vn 1 0 0
vn 0 0 1
vn -1 0 0
vn 0 1 0
vn 0 -1 0
usemtl m_190859a1-43fc-f062-3860-dc3a284f3c8d
f 20/48/12 23/47/12 21/46/12 18/45/12
f 19/52/13 20/51/13 18/50/13 17/49/13
f 24/56/14 19/55/14 17/54/14 22/53/14
f 23/60/15 24/59/15 22/58/15 21/57/15
f 22/64/16 17/63/16 18/62/16 21/61/16
f 23/68/17 20/67/17 19/66/17 24/65/17
o top_ring
v 0.0625 1.28125 0.0625
v 0.0625 1.28125 -0.0625
v 0.0625 1.21875 0.0625
v 0.0625 1.21875 -0.0625
v -0.0625 1.28125 -0.0625
v -0.0625 1.28125 0.0625
v -0.0625 1.21875 -0.0625
v -0.0625 1.21875 0.0625
vt 0.21875 0.90625
vt 0.15625 0.90625
vt 0.15625 0.875
vt 0.21875 0.875
vt 0.15625 0.90625
vt 0.21875 0.90625
vt 0.21875 0.875
vt 0.15625 0.875
vt 0.21875 0.90625
vt 0.15625 0.90625
vt 0.15625 0.875
vt 0.21875 0.875
vt 0.15625 0.90625
vt 0.21875 0.90625
vt 0.21875 0.875
vt 0.15625 0.875
vt 0.09375 0.9375
vt 0.15625 0.9375
vt 0.15625 0.875
vt 0.09375 0.875
vt 0.15625 0.9375
vt 0.09375 0.9375
vt 0.09375 0.875
vt 0.15625 0.875
vn 0 0 -1
vn 1 0 0
vn 0 0 1
vn -1 0 0
vn 0 1 0
vn 0 -1 0
usemtl m_190859a1-43fc-f062-3860-dc3a284f3c8d
f 28/72/18 31/71/18 29/70/18 26/69/18
f 27/76/19 28/75/19 26/74/19 25/73/19
f 32/80/20 27/79/20 25/78/20 30/77/20
f 31/84/21 32/83/21 30/82/21 29/81/21
f 30/88/22 25/87/22 26/86/22 29/85/22
f 31/92/23 28/91/23 27/90/23 32/89/23
o top_ring
v 0.0625 1.1875 0.0625
v 0.0625 1.1875 -0.0625
v 0.0625 1.125 0.0625
v 0.0625 1.125 -0.0625
v -0.0625 1.1875 -0.0625
v -0.0625 1.1875 0.0625
v -0.0625 1.125 -0.0625
v -0.0625 1.125 0.0625
vt 0.21875 0.9375
vt 0.15625 0.9375
vt 0.15625 0.90625
vt 0.21875 0.90625
vt 0.15625 0.9375
vt 0.21875 0.9375
vt 0.21875 0.90625
vt 0.15625 0.90625
vt 0.21875 0.9375
vt 0.15625 0.9375
vt 0.15625 0.90625
vt 0.21875 0.90625
vt 0.15625 0.9375
vt 0.21875 0.9375
vt 0.21875 0.90625
vt 0.15625 0.90625
vt 0.03125 0.9375
vt 0.09375 0.9375
vt 0.09375 0.875
vt 0.03125 0.875
vt 0.09375 0.9375
vt 0.03125 0.9375
vt 0.03125 0.875
vt 0.09375 0.875
vn 0 0 -1
vn 1 0 0
vn 0 0 1
vn -1 0 0
vn 0 1 0
vn 0 -1 0
usemtl m_190859a1-43fc-f062-3860-dc3a284f3c8d
f 36/96/24 39/95/24 37/94/24 34/93/24
f 35/100/25 36/99/25 34/98/25 33/97/25
f 40/104/26 35/103/26 33/102/26 38/101/26
f 39/108/27 40/107/27 38/106/27 37/105/27
f 38/112/28 33/111/28 34/110/28 37/109/28
f 39/116/29 36/115/29 35/114/29 40/113/29
o middle_core
v -6.938893903907228e-18 1.5258883476483185 0.08125
v -6.938893903907228e-18 1.5258883476483185 -0.08125
v 0.08838834764831843 1.4375 0.08125
v 0.08838834764831843 1.4375 -0.08125
v -0.08838834764831843 1.4375 -0.08125
v -0.08838834764831843 1.4375 0.08125
v 6.938893903907228e-18 1.3491116523516815 -0.08125
v 6.938893903907228e-18 1.3491116523516815 0.08125
vt 0.09375 0.78125
vt 0.15625 0.78125
vt 0.15625 0.71875
vt 0.09375 0.71875
vt 0.15625 0.71875
vt 0.21875 0.71875
vt 0.21875 0.65625
vt 0.15625 0.65625
vt 0.15625 0.78125
vt 0.09375 0.78125
vt 0.09375 0.71875
vt 0.15625 0.71875
vt 0.09375 0.71875
vt 0.15625 0.71875
vt 0.15625 0.65625
vt 0.09375 0.65625
vt 0.15625 0.65625
vt 0.15625 0.71875
vt 0.21875 0.71875
vt 0.21875 0.65625
vt 0.15625 0.71875
vt 0.15625 0.78125
vt 0.21875 0.78125
vt 0.21875 0.71875
vn 0 0 -1
vn 0.7071067811865475 0.7071067811865476 0
vn 0 0 1
vn -0.7071067811865475 -0.7071067811865476 0
vn -0.7071067811865476 0.7071067811865475 0
vn 0.7071067811865476 -0.7071067811865475 0
usemtl m_190859a1-43fc-f062-3860-dc3a284f3c8d
f 44/120/30 47/119/30 45/118/30 42/117/30
f 43/124/31 44/123/31 42/122/31 41/121/31
f 48/128/32 43/127/32 41/126/32 46/125/32
f 47/132/33 48/131/33 46/130/33 45/129/33
f 46/136/34 41/135/34 42/134/34 45/133/34
f 47/140/35 44/139/35 43/138/35 48/137/35
o top
v 0.1875 1.8125 0.031875
v 0.1875 1.8125 -0.031875
v 0.1875 1.5 0.031875
v 0.1875 1.5 -0.031875
v 0.125 1.8125 -0.031875
v 0.125 1.8125 0.031875
v 0.125 1.5 -0.031875
v 0.125 1.5 0.031875
vt 0.03125 0.78125
vt 0.0625 0.78125
vt 0.0625 0.625
vt 0.03125 0.625
vt 0.03125 0.78125
vt 0.063125 0.78125
vt 0.063125 0.625
vt 0.03125 0.625
vt 0.03125 0.78125
vt 0.0625 0.78125
vt 0.0625 0.625
vt 0.03125 0.625
vt 0.03125 0.78125
vt 0.063125 0.78125
vt 0.063125 0.625
vt 0.03125 0.625
vt 0.03125 0.78125
vt 0.0625 0.78125
vt 0.0625 0.749375
vt 0.03125 0.749375
vt 0.03125 0.78125
vt 0.0625 0.78125
vt 0.0625 0.749375
vt 0.03125 0.749375
vn 0 0 -1
vn 1 0 0
vn 0 0 1
vn -1 0 0
vn 0 1 0
vn 0 -1 0
usemtl m_190859a1-43fc-f062-3860-dc3a284f3c8d
f 52/144/36 55/143/36 53/142/36 50/141/36
f 51/148/37 52/147/37 50/146/37 49/145/37
f 56/152/38 51/151/38 49/150/38 54/149/38
f 55/156/39 56/155/39 54/154/39 53/153/39
f 54/160/40 49/159/40 50/158/40 53/157/40
f 55/164/41 52/163/41 51/162/41 56/161/41
o side
v 0.1875 1.625 0.03125
v 0.1875 1.625 -0.03125
v 0.13897142904327736 1.4438889075707997 0.03125
v 0.13897142904327736 1.4438889075707997 -0.03125
v 0.12712963585693324 1.6411761903189075 -0.03125
v 0.12712963585693324 1.6411761903189075 0.03125
v 0.0786010649002106 1.4600650978897072 -0.03125
v 0.0786010649002106 1.4600650978897072 0.03125
vt 0.0625 0.78125
vt 0.09375 0.78125
vt 0.09375 0.6875
vt 0.0625 0.6875
vt 0.0625 0.78125
vt 0.09375 0.78125
vt 0.09375 0.6875
vt 0.0625 0.6875
vt 0.0625 0.78125
vt 0.09375 0.78125
vt 0.09375 0.6875
vt 0.0625 0.6875
vn 0 0 -1
vn 0 0 1
vn -0.9659258262890683 0.25881904510252074 0
usemtl m_190859a1-43fc-f062-3860-dc3a284f3c8d
f 60/168/42 63/167/42 61/166/42 58/165/42
f 64/172/43 59/171/43 57/170/43 62/169/43
f 63/176/44 64/175/44 62/174/44 61/173/44
o top
v 0.1875 1.8125 0.03125
v 0.1875 1.8125 -0.03125
v 0.20367619031890755 1.7521296358569332 0.03125
v 0.20367619031890755 1.7521296358569332 -0.03125
v 0.12712963585693324 1.7963238096810925 -0.03125
v 0.12712963585693324 1.7963238096810925 0.03125
v 0.14330582617584078 1.7359534455380257 -0.03125
v 0.14330582617584078 1.7359534455380257 0.03125
vt 0.03125 0.78125
vt 0.0625 0.78125
vt 0.0625 0.75
vt 0.03125 0.75
vt 0.03125 0.78125
vt 0.0625 0.78125
vt 0.0625 0.75
vt 0.03125 0.75
vt 0.03125 0.78125
vt 0.0625 0.78125
vt 0.0625 0.75
vt 0.03125 0.75
vt 0.03125 0.78125
vt 0.0625 0.78125
vt 0.0625 0.75
vt 0.03125 0.75
vn 0 0 -1
vn 0.9659258262890683 0.25881904510252074 0
vn 0 0 1
vn 0.25881904510252074 -0.9659258262890683 0
usemtl m_190859a1-43fc-f062-3860-dc3a284f3c8d
f 68/180/45 71/179/45 69/178/45 66/177/45
f 67/184/46 68/183/46 66/182/46 65/181/46
f 72/188/47 67/187/47 65/186/47 70/185/47
f 71/192/48 68/191/48 67/190/48 72/189/48
o top_base_side
v 0.17184950184468928 1.4750108358174514 0.018228443967495553
v 0.1796298169719946 1.4774639597541877 -0.04373685986836759
v 0.19064361431370636 1.4154035263956872 0.018228443967495553
v 0.19842392944101164 1.4178566503324235 -0.04373685986836759
v 0.04370588753098294 1.4346073094217642 -0.0625
v 0.03592557240367765 1.432154185485028 -0.0005346961641368511
v 0.0625 1.375 -0.0625
v 0.05471968487269472 1.3725468760632638 -0.0005346961641368511
vt 0.15625 0.84375
vt 0.21875 0.84375
vt 0.21875 0.8125
vt 0.15625 0.8125
vt 0.15625 0.84375
vt 0.1875 0.84375
vt 0.1875 0.8125
vt 0.15625 0.8125
vt 0.15625 0.84375
vt 0.21875 0.84375
vt 0.21875 0.8125
vt 0.15625 0.8125
vt 0.15625 0.84375
vt 0.21875 0.84375
vt 0.21875 0.8125
vt 0.15625 0.8125
vn 0.1244850420368845 0.03924998298777903 -0.9914448613738104
vn 0.945557770024429 0.29813321970381484 0.13052619222005155
vn -0.30070579950427306 0.9537169507482269 6.938893903907228e-18
vn 0.30070579950427306 -0.9537169507482269 -6.938893903907228e-18
usemtl m_190859a1-43fc-f062-3860-dc3a284f3c8d
f 76/196/49 79/195/49 77/194/49 74/193/49
f 75/200/50 76/199/50 74/198/50 73/197/50
f 78/204/51 73/203/51 74/202/51 77/201/51
f 79/208/52 76/207/52 75/206/52 80/205/52
o top_base_spike
v 0.19129126073623884 1.3970970869120796 0.031875
v 0.19129126073623884 1.3970970869120796 -0.031875
v 0.14709708691207962 1.3529029130879204 0.031875
v 0.14709708691207962 1.3529029130879204 -0.031875
v 0.1029029130879204 1.485485434560398 -0.031875
v 0.1029029130879204 1.485485434560398 0.031875
v 0.058708739263761175 1.441291260736239 -0.031875
v 0.058708739263761175 1.441291260736239 0.031875
vt 0.15625 0.8125
vt 0.09375 0.8125
vt 0.09375 0.78125
vt 0.15625 0.78125
vt 0.09375 0.8125
vt 0.125 0.8125
vt 0.125 0.78125
vt 0.09375 0.78125
vt 0.09375 0.8125
vt 0.15625 0.8125
vt 0.15625 0.78125
vt 0.09375 0.78125
vt 0.09375 0.8125
vt 0.125 0.8125
vt 0.125 0.78125
vt 0.09375 0.78125
vt 0.09375 0.8125
vt 0.15625 0.8125
vt 0.15625 0.78125
vt 0.09375 0.78125
vt 0.09375 0.8125
vt 0.15625 0.8125
vt 0.15625 0.78125
vt 0.09375 0.78125
vn 0 0 -1
vn 0.7071067811865475 -0.7071067811865476 0
vn 0 0 1
vn -0.7071067811865475 0.7071067811865476 0
vn 0.7071067811865476 0.7071067811865475 0
vn -0.7071067811865476 -0.7071067811865475 0
usemtl m_190859a1-43fc-f062-3860-dc3a284f3c8d
f 84/212/53 87/211/53 85/210/53 82/209/53
f 83/216/54 84/215/54 82/214/54 81/213/54
f 88/220/55 83/219/55 81/218/55 86/217/55
f 87/224/56 88/223/56 86/222/56 85/221/56
f 86/228/57 81/227/57 82/226/57 85/225/57
f 87/232/58 84/231/58 83/230/58 88/229/58
o top_base_side
v 0.16904350101826524 1.5145660280470195 0.016400730901728222
v 0.177131596177719 1.515630845975486 -0.04556457293413492
v 0.17720138803201846 1.4526007242111563 0.016400730901728222
v 0.1852894831914722 1.453665542139623 -0.04556457293413492
v 0.05426123203465224 1.4994546556565784 -0.061880346961641366
v 0.046173136875198466 1.498389837728112 0.00008495687422177545
v 0.06241911904840546 1.4374893518207152 -0.061880346961641366
v 0.05433102388895169 1.4364245338922488 0.00008495687422177545
vt 0.21875 0.875
vt 0.15625 0.875
vt 0.15625 0.84375
vt 0.21875 0.84375
vt 0.1875 0.875
vt 0.21875 0.875
vt 0.21875 0.84375
vt 0.1875 0.84375
vt 0.15625 0.875
vt 0.21875 0.875
vt 0.21875 0.84375
vt 0.15625 0.84375
vt 0.15625 0.875
vt 0.21875 0.875
vt 0.21875 0.84375
vt 0.15625 0.84375
vn 0.1294095225512604 0.017037086855465854 -0.9914448613738105
vn 0.9829629131445341 0.12940952255126037 0.13052619222005157
vn -0.1305261922200516 0.9914448613738105 -3.469446951953615e-18
vn 0.1305261922200516 -0.9914448613738105 3.469446951953615e-18
usemtl m_190859a1-43fc-f062-3860-dc3a284f3c8d
f 92/236/59 95/235/59 93/234/59 90/233/59
f 91/240/60 92/239/60 90/238/60 89/237/60
f 94/244/61 89/243/61 90/242/61 93/241/61
f 95/248/62 92/247/62 91/246/62 96/245/62
o top_base_spike
v 0.20432216721148388 1.4045967489269424 0.03125
v 0.20432216721148388 1.4045967489269424 -0.03125
v 0.1427716826482209 1.3937437378227593 0.03125
v 0.1427716826482209 1.3937437378227593 -0.03125
v 0.18532939777916338 1.5123100969126526 -0.03125
v 0.18532939777916338 1.5123100969126526 0.03125
v 0.12377891321590037 1.5014570858084695 -0.03125
v 0.12377891321590037 1.5014570858084695 0.03125
vt 0.21875 0.875
vt 0.15625 0.875
vt 0.15625 0.84375
vt 0.21875 0.84375
vt 0.15625 0.875
vt 0.1875 0.875
vt 0.1875 0.84375
vt 0.15625 0.84375
vt 0.15625 0.875
vt 0.21875 0.875
vt 0.21875 0.84375
vt 0.15625 0.84375
vt 0.15625 0.875
vt 0.21875 0.875
vt 0.21875 0.84375
vt 0.15625 0.84375
vn 0 0 -1
vn 0.17364817766693055 -0.9848077530122081 0
vn 0 0 1
vn 0.9848077530122081 0.17364817766693055 0
usemtl m_190859a1-43fc-f062-3860-dc3a284f3c8d
f 100/252/63 103/251/63 101/250/63 98/249/63
f 99/256/64 100/255/64 98/254/64 97/253/64
f 104/260/65 99/259/65 97/258/65 102/257/65
f 102/264/66 97/263/66 98/262/66 101/261/66
o top_base_side
v 0.1796298169719946 1.4774639597541877 0.04373685986836759
v 0.17184950184468928 1.4750108358174514 -0.018228443967495553
v 0.19842392944101164 1.4178566503324235 0.04373685986836759
v 0.19064361431370636 1.4154035263956872 -0.018228443967495553
v 0.03592557240367765 1.432154185485028 0.0005346961641368511
v 0.04370588753098294 1.4346073094217642 0.0625
v 0.05471968487269472 1.3725468760632638 0.0005346961641368511
v 0.0625 1.375 0.0625
vt 0.1875 0.84375
vt 0.15625 0.84375
vt 0.15625 0.8125
vt 0.1875 0.8125
vt 0.21875 0.84375
vt 0.15625 0.84375
vt 0.15625 0.8125
vt 0.21875 0.8125
vt 0.15625 0.8125
vt 0.21875 0.8125
vt 0.21875 0.84375
vt 0.15625 0.84375
vt 0.15625 0.8125
vt 0.21875 0.8125
vt 0.21875 0.84375
vt 0.15625 0.84375
vn 0.945557770024429 0.29813321970381484 -0.13052619222005155
vn 0.1244850420368845 0.03924998298777903 0.9914448613738104
vn -0.30070579950427306 0.9537169507482269 -6.938893903907228e-18
vn 0.30070579950427306 -0.9537169507482269 6.938893903907228e-18
usemtl m_190859a1-43fc-f062-3860-dc3a284f3c8d
f 107/268/67 108/267/67 106/266/67 105/265/67
f 112/272/68 107/271/68 105/270/68 110/269/68
f 110/276/69 105/275/69 106/274/69 109/273/69
f 111/280/70 108/279/70 107/278/70 112/277/70
o top_base_side
v 0.177131596177719 1.515630845975486 0.04556457293413492
v 0.16904350101826524 1.5145660280470195 -0.016400730901728222
v 0.1852894831914722 1.453665542139623 0.04556457293413492
v 0.17720138803201846 1.4526007242111563 -0.016400730901728222
v 0.046173136875198466 1.498389837728112 -0.00008495687422177545
v 0.05426123203465224 1.4994546556565784 0.061880346961641366
v 0.05433102388895169 1.4364245338922488 -0.00008495687422177545
v 0.06241911904840546 1.4374893518207152 0.061880346961641366
vt 0.21875 0.875
vt 0.1875 0.875
vt 0.1875 0.84375
vt 0.21875 0.84375
vt 0.15625 0.875
vt 0.21875 0.875
vt 0.21875 0.84375
vt 0.15625 0.84375
vt 0.15625 0.84375
vt 0.21875 0.84375
vt 0.21875 0.875
vt 0.15625 0.875
vt 0.15625 0.84375
vt 0.21875 0.84375
vt 0.21875 0.875
vt 0.15625 0.875
vn 0.9829629131445341 0.12940952255126037 -0.13052619222005157
vn 0.1294095225512604 0.017037086855465854 0.9914448613738105
vn -0.1305261922200516 0.9914448613738105 3.469446951953615e-18
vn 0.1305261922200516 -0.9914448613738105 -3.469446951953615e-18
usemtl m_190859a1-43fc-f062-3860-dc3a284f3c8d
f 115/284/71 116/283/71 114/282/71 113/281/71
f 120/288/72 115/287/72 113/286/72 118/285/72
f 118/292/73 113/291/73 114/290/73 117/289/73
f 119/296/74 116/295/74 115/294/74 120/293/74
o top
v 0.031875 1.875 0.03125
v 0.031875 1.875 -0.03125
v 0.031875 1.5 0.03125
v 0.031875 1.5 -0.03125
v -0.031875 1.875 -0.03125
v -0.031875 1.875 0.03125
v -0.031875 1.5 -0.03125
v -0.031875 1.5 0.03125
vt 0.03125 0.78125
vt 0.063125 0.78125
vt 0.063125 0.59375
vt 0.03125 0.59375
vt 0.03125 0.78125
vt 0.0625 0.78125
vt 0.0625 0.59375
vt 0.03125 0.59375
vt 0.03125 0.78125
vt 0.063125 0.78125
vt 0.063125 0.59375
vt 0.03125 0.59375
vt 0.03125 0.78125
vt 0.0625 0.78125
vt 0.0625 0.59375
vt 0.03125 0.59375
vt 0.03125 0.78125
vt 0.063125 0.78125
vt 0.063125 0.75
vt 0.03125 0.75
vn 0 0 -1
vn 1 0 0
vn 0 0 1
vn -1 0 0
vn 0 1 0
usemtl m_190859a1-43fc-f062-3860-dc3a284f3c8d
f 124/300/75 127/299/75 125/298/75 122/297/75
f 123/304/76 124/303/76 122/302/76 121/301/76
f 128/308/77 123/307/77 121/306/77 126/305/77
f 127/312/78 128/311/78 126/310/78 125/309/78
f 126/316/79 121/315/79 122/314/79 125/313/79
o top
v 0.03125 1.6847763830391356 0.03113108431536705
v 0.03125 1.6902236169608644 -0.03113108431536705
v 0.03125 1.4357277085161992 0.009342148628452503
v 0.03125 1.4411749424379279 -0.05292002000228159
v -0.03125 1.6902236169608644 -0.03113108431536705
v -0.03125 1.6847763830391356 0.03113108431536705
v -0.03125 1.4411749424379279 -0.05292002000228159
v -0.03125 1.4357277085161992 0.009342148628452503
vt 0.0625 0.78125
vt 0.09375 0.78125
vt 0.09375 0.65625
vt 0.0625 0.65625
vt 0.0625 0.78125
vt 0.09375 0.78125
vt 0.09375 0.65625
vt 0.0625 0.65625
vt 0.0625 0.78125
vt 0.09375 0.78125
vt 0.09375 0.65625
vt 0.0625 0.65625
vn 0 0.08715574274765818 -0.9961946980917455
vn 1 0 0
vn -1 0 0
usemtl m_190859a1-43fc-f062-3860-dc3a284f3c8d
f 132/320/80 135/319/80 133/318/80 130/317/80
f 131/324/81 132/323/81 130/322/81 129/321/81
f 135/328/82 136/327/82 134/326/82 133/325/82
o top
v 0.03125 1.6902236169608644 0.03113108431536705
v 0.03125 1.6847763830391356 -0.03113108431536705
v 0.03125 1.4411749424379279 0.05292002000228159
v 0.03125 1.4357277085161992 -0.009342148628452503
v -0.03125 1.6847763830391356 -0.03113108431536705
v -0.03125 1.6902236169608644 0.03113108431536705
v -0.03125 1.4357277085161992 -0.009342148628452503
v -0.03125 1.4411749424379279 0.05292002000228159
vt 0.0625 0.78125
vt 0.09375 0.78125
vt 0.09375 0.65625
vt 0.0625 0.65625
vt 0.0625 0.78125
vt 0.09375 0.78125
vt 0.09375 0.65625
vt 0.0625 0.65625
vt 0.0625 0.78125
vt 0.09375 0.78125
vt 0.09375 0.65625
vt 0.0625 0.65625
vn 1 0 0
vn 0 0.08715574274765818 0.9961946980917455
vn -1 0 0
usemtl m_190859a1-43fc-f062-3860-dc3a284f3c8d
f 139/332/83 140/331/83 138/330/83 137/329/83
f 144/336/84 139/335/84 137/334/84 142/333/84
f 143/340/85 144/339/85 142/338/85 141/337/85
o top
v -0.12712963585693324 1.7963238096810925 0.03125
v -0.12712963585693324 1.7963238096810925 -0.03125
v -0.14330582617584078 1.7359534455380257 0.03125
v -0.14330582617584078 1.7359534455380257 -0.03125
v -0.1875 1.8125 -0.03125
v -0.1875 1.8125 0.03125
v -0.20367619031890755 1.7521296358569332 -0.03125
v -0.20367619031890755 1.7521296358569332 0.03125
vt 0.0625 0.78125
vt 0.03125 0.78125
vt 0.03125 0.75
vt 0.0625 0.75
vt 0.0625 0.78125
vt 0.03125 0.78125
vt 0.03125 0.75
vt 0.0625 0.75
vt 0.0625 0.78125
vt 0.03125 0.78125
vt 0.03125 0.75
vt 0.0625 0.75
vt 0.0625 0.78125
vt 0.03125 0.78125
vt 0.03125 0.75
vt 0.0625 0.75
vn 0 0 -1
vn 0 0 1
vn -0.9659258262890683 0.25881904510252074 0
vn -0.25881904510252074 -0.9659258262890683 0
usemtl m_190859a1-43fc-f062-3860-dc3a284f3c8d
f 148/344/86 151/343/86 149/342/86 146/341/86
f 152/348/87 147/347/87 145/346/87 150/345/87
f 151/352/88 152/351/88 150/350/88 149/349/88
f 151/356/89 148/355/89 147/354/89 152/353/89
o top
v -0.125 1.8125 0.031875
v -0.125 1.8125 -0.031875
v -0.125 1.5 0.031875
v -0.125 1.5 -0.031875
v -0.1875 1.8125 -0.031875
v -0.1875 1.8125 0.031875
v -0.1875 1.5 -0.031875
v -0.1875 1.5 0.031875
vt 0.0625 0.78125
vt 0.03125 0.78125
vt 0.03125 0.625
vt 0.0625 0.625
vt 0.063125 0.78125
vt 0.03125 0.78125
vt 0.03125 0.625
vt 0.063125 0.625
vt 0.0625 0.78125
vt 0.03125 0.78125
vt 0.03125 0.625
vt 0.0625 0.625
vt 0.063125 0.78125
vt 0.03125 0.78125
vt 0.03125 0.625
vt 0.063125 0.625
vt 0.0625 0.78125
vt 0.03125 0.78125
vt 0.03125 0.749375
vt 0.0625 0.749375
vt 0.0625 0.78125
vt 0.03125 0.78125
vt 0.03125 0.749375
vt 0.0625 0.749375
vn 0 0 -1
vn 1 0 0
vn 0 0 1
vn -1 0 0
vn 0 1 0
vn 0 -1 0
usemtl m_190859a1-43fc-f062-3860-dc3a284f3c8d
f 156/360/90 159/359/90 157/358/90 154/357/90
f 155/364/91 156/363/91 154/362/91 153/361/91
f 160/368/92 155/367/92 153/366/92 158/365/92
f 159/372/93 160/371/93 158/370/93 157/369/93
f 158/376/94 153/375/94 154/374/94 157/373/94
f 159/380/95 156/379/95 155/378/95 160/377/95
o side
v -0.12712963585693324 1.6411761903189075 0.03125
v -0.12712963585693324 1.6411761903189075 -0.03125
v -0.0786010649002106 1.4600650978897072 0.03125
v -0.0786010649002106 1.4600650978897072 -0.03125
v -0.1875 1.625 -0.03125
v -0.1875 1.625 0.03125
v -0.13897142904327736 1.4438889075707997 -0.03125
v -0.13897142904327736 1.4438889075707997 0.03125
vt 0.09375 0.78125
vt 0.0625 0.78125
vt 0.0625 0.6875
vt 0.09375 0.6875
vt 0.09375 0.78125
vt 0.0625 0.78125
vt 0.0625 0.6875
vt 0.09375 0.6875
vt 0.09375 0.78125
vt 0.0625 0.78125
vt 0.0625 0.6875
vt 0.09375 0.6875
vn 0 0 -1
vn 0.9659258262890683 0.25881904510252074 0
vn 0 0 1
usemtl m_190859a1-43fc-f062-3860-dc3a284f3c8d
f 164/384/96 167/383/96 165/382/96 162/381/96
f 163/388/97 164/387/97 162/386/97 161/385/97
f 168/392/98 163/391/98 161/390/98 166/389/98
o top_base_side
v -0.03592557240367765 1.432154185485028 -0.0005346961641368511
v -0.04370588753098294 1.4346073094217642 -0.0625
v -0.05471968487269472 1.3725468760632638 -0.0005346961641368511
v -0.0625 1.375 -0.0625
v -0.1796298169719946 1.4774639597541877 -0.04373685986836759
v -0.17184950184468928 1.4750108358174514 0.018228443967495553
v -0.19842392944101164 1.4178566503324235 -0.04373685986836759
v -0.19064361431370636 1.4154035263956872 0.018228443967495553
vt 0.21875 0.84375
vt 0.15625 0.84375
vt 0.15625 0.8125
vt 0.21875 0.8125
vt 0.1875 0.84375
vt 0.15625 0.84375
vt 0.15625 0.8125
vt 0.1875 0.8125
vt 0.21875 0.84375
vt 0.15625 0.84375
vt 0.15625 0.8125
vt 0.21875 0.8125
vt 0.21875 0.84375
vt 0.15625 0.84375
vt 0.15625 0.8125
vt 0.21875 0.8125
vn -0.1244850420368845 0.03924998298777903 -0.9914448613738104
vn -0.945557770024429 0.29813321970381484 0.13052619222005155
vn 0.30070579950427306 0.9537169507482269 6.938893903907228e-18
vn -0.30070579950427306 -0.9537169507482269 -6.938893903907228e-18
usemtl m_190859a1-43fc-f062-3860-dc3a284f3c8d
f 172/396/99 175/395/99 173/394/99 170/393/99
f 175/400/100 176/399/100 174/398/100 173/397/100
f 174/404/101 169/403/101 170/402/101 173/401/101
f 175/408/102 172/407/102 171/406/102 176/405/102
o top_base_side
v -0.046173136875198466 1.498389837728112 0.00008495687422177545
v -0.05426123203465224 1.4994546556565784 -0.061880346961641366
v -0.05433102388895169 1.4364245338922488 0.00008495687422177545
v -0.06241911904840546 1.4374893518207152 -0.061880346961641366
v -0.177131596177719 1.515630845975486 -0.04556457293413492
v -0.16904350101826524 1.5145660280470195 0.016400730901728222
v -0.1852894831914722 1.453665542139623 -0.04556457293413492
v -0.17720138803201846 1.4526007242111563 0.016400730901728222
vt 0.15625 0.875
vt 0.21875 0.875
vt 0.21875 0.84375
vt 0.15625 0.84375
vt 0.21875 0.875
vt 0.1875 0.875
vt 0.1875 0.84375
vt 0.21875 0.84375
vt 0.21875 0.875
vt 0.15625 0.875
vt 0.15625 0.84375
vt 0.21875 0.84375
vt 0.21875 0.875
vt 0.15625 0.875
vt 0.15625 0.84375
vt 0.21875 0.84375
vn -0.1294095225512604 0.017037086855465854 -0.9914448613738105
vn -0.9829629131445341 0.12940952255126037 0.13052619222005157
vn 0.1305261922200516 0.9914448613738105 -3.469446951953615e-18
vn -0.1305261922200516 -0.9914448613738105 3.469446951953615e-18
usemtl m_190859a1-43fc-f062-3860-dc3a284f3c8d
f 180/412/103 183/411/103 181/410/103 178/409/103
f 183/416/104 184/415/104 182/414/104 181/413/104
f 182/420/105 177/419/105 178/418/105 181/417/105
f 183/424/106 180/423/106 179/422/106 184/421/106
o top_base_side
v -0.05426123203465224 1.4994546556565784 0.061880346961641366
v -0.046173136875198466 1.498389837728112 -0.00008495687422177545
v -0.06241911904840546 1.4374893518207152 0.061880346961641366
v -0.05433102388895169 1.4364245338922488 -0.00008495687422177545
v -0.16904350101826524 1.5145660280470195 -0.016400730901728222
v -0.177131596177719 1.515630845975486 0.04556457293413492
v -0.17720138803201846 1.4526007242111563 -0.016400730901728222
v -0.1852894831914722 1.453665542139623 0.04556457293413492
vt 0.21875 0.875
vt 0.15625 0.875
vt 0.15625 0.84375
vt 0.21875 0.84375
vt 0.1875 0.875
vt 0.21875 0.875
vt 0.21875 0.84375
vt 0.1875 0.84375
vt 0.21875 0.84375
vt 0.15625 0.84375
vt 0.15625 0.875
vt 0.21875 0.875
vt 0.21875 0.84375
vt 0.15625 0.84375
vt 0.15625 0.875
vt 0.21875 0.875
vn -0.1294095225512604 0.017037086855465854 0.9914448613738105
vn -0.9829629131445341 0.12940952255126037 -0.13052619222005157
vn 0.1305261922200516 0.9914448613738105 3.469446951953615e-18
vn -0.1305261922200516 -0.9914448613738105 -3.469446951953615e-18
usemtl m_190859a1-43fc-f062-3860-dc3a284f3c8d
f 192/428/107 187/427/107 185/426/107 190/425/107
f 191/432/108 192/431/108 190/430/108 189/429/108
f 190/436/109 185/435/109 186/434/109 189/433/109
f 191/440/110 188/439/110 187/438/110 192/437/110
o top_base_side
v -0.04370588753098294 1.4346073094217642 0.0625
v -0.03592557240367765 1.432154185485028 0.0005346961641368511
v -0.0625 1.375 0.0625
v -0.05471968487269472 1.3725468760632638 0.0005346961641368511
v -0.17184950184468928 1.4750108358174514 -0.018228443967495553
v -0.1796298169719946 1.4774639597541877 0.04373685986836759
v -0.19064361431370636 1.4154035263956872 -0.018228443967495553
v -0.19842392944101164 1.4178566503324235 0.04373685986836759
vt 0.15625 0.84375
vt 0.21875 0.84375
vt 0.21875 0.8125
vt 0.15625 0.8125
vt 0.15625 0.84375
vt 0.1875 0.84375
vt 0.1875 0.8125
vt 0.15625 0.8125
vt 0.21875 0.8125
vt 0.15625 0.8125
vt 0.15625 0.84375
vt 0.21875 0.84375
vt 0.21875 0.8125
vt 0.15625 0.8125
vt 0.15625 0.84375
vt 0.21875 0.84375
vn -0.1244850420368845 0.03924998298777903 0.9914448613738104
vn -0.945557770024429 0.29813321970381484 -0.13052619222005155
vn 0.30070579950427306 0.9537169507482269 -6.938893903907228e-18
vn -0.30070579950427306 -0.9537169507482269 6.938893903907228e-18
usemtl m_190859a1-43fc-f062-3860-dc3a284f3c8d
f 200/444/111 195/443/111 193/442/111 198/441/111
f 199/448/112 200/447/112 198/446/112 197/445/112
f 198/452/113 193/451/113 194/450/113 197/449/113
f 199/456/114 196/455/114 195/454/114 200/453/114
o top_base_spike
v -0.1029029130879204 1.485485434560398 0.031875
v -0.1029029130879204 1.485485434560398 -0.031875
v -0.058708739263761175 1.441291260736239 0.031875
v -0.058708739263761175 1.441291260736239 -0.031875
v -0.19129126073623884 1.3970970869120796 -0.031875
v -0.19129126073623884 1.3970970869120796 0.031875
v -0.14709708691207962 1.3529029130879204 -0.031875
v -0.14709708691207962 1.3529029130879204 0.031875
vt 0.09375 0.8125
vt 0.15625 0.8125
vt 0.15625 0.78125
vt 0.09375 0.78125
vt 0.125 0.8125
vt 0.09375 0.8125
vt 0.09375 0.78125
vt 0.125 0.78125
vt 0.15625 0.8125
vt 0.09375 0.8125
vt 0.09375 0.78125
vt 0.15625 0.78125
vt 0.125 0.8125
vt 0.09375 0.8125
vt 0.09375 0.78125
vt 0.125 0.78125
vt 0.15625 0.8125
vt 0.09375 0.8125
vt 0.09375 0.78125
vt 0.15625 0.78125
vt 0.15625 0.8125
vt 0.09375 0.8125
vt 0.09375 0.78125
vt 0.15625 0.78125
vn 0 0 -1
vn 0.7071067811865475 0.7071067811865476 0
vn 0 0 1
vn -0.7071067811865475 -0.7071067811865476 0
vn -0.7071067811865476 0.7071067811865475 0
vn 0.7071067811865476 -0.7071067811865475 0
usemtl m_190859a1-43fc-f062-3860-dc3a284f3c8d
f 204/460/115 207/459/115 205/458/115 202/457/115
f 203/464/116 204/463/116 202/462/116 201/461/116
f 208/468/117 203/467/117 201/466/117 206/465/117
f 207/472/118 208/471/118 206/470/118 205/469/118
f 206/476/119 201/475/119 202/474/119 205/473/119
f 207/480/120 204/479/120 203/478/120 208/477/120
o top_base_spike
v -0.18532939777916338 1.5123100969126526 0.03125
v -0.18532939777916338 1.5123100969126526 -0.03125
v -0.12377891321590037 1.5014570858084695 0.03125
v -0.12377891321590037 1.5014570858084695 -0.03125
v -0.20432216721148388 1.4045967489269424 -0.03125
v -0.20432216721148388 1.4045967489269424 0.03125
v -0.1427716826482209 1.3937437378227593 -0.03125
v -0.1427716826482209 1.3937437378227593 0.03125
vt 0.15625 0.875
vt 0.21875 0.875
vt 0.21875 0.84375
vt 0.15625 0.84375
vt 0.21875 0.875
vt 0.15625 0.875
vt 0.15625 0.84375
vt 0.21875 0.84375
vt 0.1875 0.875
vt 0.15625 0.875
vt 0.15625 0.84375
vt 0.1875 0.84375
vt 0.21875 0.875
vt 0.15625 0.875
vt 0.15625 0.84375
vt 0.21875 0.84375
vn 0 0 -1
vn 0 0 1
vn -0.17364817766693055 -0.9848077530122081 0
vn -0.9848077530122081 0.17364817766693055 0
usemtl m_190859a1-43fc-f062-3860-dc3a284f3c8d
f 212/484/121 215/483/121 213/482/121 210/481/121
f 216/488/122 211/487/122 209/486/122 214/485/122
f 215/492/123 216/491/123 214/490/123 213/489/123
f 214/496/124 209/495/124 210/494/124 213/493/124